<?xml version="1.0" standalone="no"?>
<!DOCTYPE svg PUBLIC "-//W3C//DTD SVG 20010904//EN"
 "http://www.w3.org/TR/2001/REC-SVG-20010904/DTD/svg10.dtd">
<svg version="1.0" xmlns="http://www.w3.org/2000/svg"
 width="1200.000000pt" height="914.000000pt" viewBox="0 0 1200.000000 914.000000"
 preserveAspectRatio="xMidYMid meet">

<g transform="translate(0.000000,914.000000) scale(0.100000,-0.100000)"
fill="#000000" stroke="none">
<path d="M11030 9124 c0 -45 61 -79 155 -86 l40 -4 -30 -8 c-35 -10 -65 -34
-65 -52 0 -9 20 -4 63 16 68 31 239 89 266 91 9 1 -1 6 -22 11 -20 6 -42 19
-48 29 -6 13 -21 19 -41 19 -30 0 -31 -1 -12 -15 14 -11 15 -14 4 -14 -8 0
-24 6 -34 14 -15 11 -51 15 -148 15 -109 0 -128 -2 -128 -16z m180 -24 c0 -5
-5 -10 -11 -10 -5 0 -7 5 -4 10 3 6 8 10 11 10 2 0 4 -4 4 -10z m160 -24 c0
-3 -4 -8 -10 -11 -5 -3 -10 -1 -10 4 0 6 5 11 10 11 6 0 10 -2 10 -4z"/>
<path d="M11798 9083 c7 -3 16 -2 19 1 4 3 -2 6 -13 5 -11 0 -14 -3 -6 -6z"/>
<path d="M11520 9059 c-14 -6 -28 -16 -32 -23 -4 -8 -28 -17 -53 -20 -48 -8
-67 -26 -79 -79 -5 -21 -4 -27 5 -21 9 5 10 2 4 -12 -12 -30 -17 -94 -7 -94 9
0 27 62 25 87 0 7 3 10 8 7 5 -3 13 5 18 18 11 27 36 51 115 106 57 40 55 54
-4 31z m-80 -73 c0 -2 -8 -10 -17 -17 -16 -13 -17 -12 -4 4 13 16 21 21 21 13z"/>
<path d="M11860 9066 c0 -2 7 -7 16 -10 8 -3 12 -2 9 4 -6 10 -25 14 -25 6z"/>
<path d="M11315 9000 c-124 -45 -167 -67 -149 -74 24 -9 108 21 169 61 56 37
52 40 -20 13z"/>
<path d="M10176 8873 c-6 -14 -5 -15 5 -6 7 7 10 15 7 18 -3 3 -9 -2 -12 -12z"/>
<path d="M11022 8840 c-7 -12 -10 -25 -7 -30 3 -4 -1 -11 -7 -14 -18 -8 48 3
97 16 l40 11 -40 9 c-22 5 -44 13 -49 18 -14 14 -20 13 -34 -10z"/>
<path d="M11103 8853 c9 -2 25 -2 35 0 9 3 1 5 -18 5 -19 0 -27 -2 -17 -5z"/>
<path d="M10011 8824 c0 -11 3 -14 6 -6 3 7 2 16 -1 19 -3 4 -6 -2 -5 -13z"/>
<path d="M11200 8790 c-117 -11 -190 -28 -190 -46 0 -11 9 -13 40 -8 33 6 39
4 35 -8 -5 -12 0 -14 21 -10 19 3 25 1 20 -7 -8 -12 26 -16 38 -4 3 4 16 8 27
10 22 3 108 49 124 65 7 8 6 9 -3 4 -24 -14 -73 -25 -67 -15 4 5 12 9 20 9 8
0 17 5 20 10 3 6 5 9 3 9 -2 -1 -41 -5 -88 -9z"/>
<path d="M10943 8740 c-31 -12 -29 -28 2 -23 28 6 57 33 34 32 -8 0 -24 -4
-36 -9z"/>
<path d="M11580 8676 c0 -2 7 -7 16 -10 8 -3 12 -2 9 4 -6 10 -25 14 -25 6z"/>
<path d="M11090 8655 c-11 -13 -10 -14 4 -9 9 3 16 10 16 15 0 13 -6 11 -20
-6z"/>
<path d="M10131 8644 c0 -11 3 -14 6 -6 3 7 2 16 -1 19 -3 4 -6 -2 -5 -13z"/>
<path d="M11564 8606 c-10 -41 39 -101 141 -171 93 -63 185 -119 185 -112 0 6
-135 114 -158 126 -11 6 -29 34 -40 62 -15 42 -20 48 -25 30 -3 -11 -2 -19 3
-16 4 3 10 -5 13 -17 l6 -21 -21 21 c-12 11 -33 42 -47 68 -31 56 -48 65 -57
30z"/>
<path d="M10326 8583 c-6 -14 -5 -15 5 -6 7 7 10 15 7 18 -3 3 -9 -2 -12 -12z"/>
<path d="M11640 8596 c0 -2 7 -9 15 -16 13 -11 14 -10 9 4 -5 14 -24 23 -24
12z"/>
<path d="M10107 8569 c4 -13 8 -18 11 -10 2 7 -1 18 -6 23 -8 8 -9 4 -5 -13z"/>
<path d="M10370 8542 c-20 -16 -18 -17 46 -16 50 0 69 4 72 15 3 11 1 11 -5 1
-8 -10 -18 -9 -51 2 -37 13 -43 13 -62 -2z"/>
<path d="M10204 8466 c-3 -14 -12 -27 -20 -30 -8 -3 -14 -11 -14 -18 1 -18 50
40 50 58 0 22 -9 17 -16 -10z"/>
<path d="M10474 8465 c-17 -18 -18 -25 -9 -39 11 -14 14 -14 25 -2 6 9 9 20 6
25 -4 5 -1 13 5 17 8 5 9 3 4 -6 -5 -9 -4 -11 4 -6 9 6 9 11 0 22 -6 8 -12 14
-13 13 0 -1 -10 -11 -22 -24z"/>
<path d="M10270 8415 c-19 -14 -41 -25 -49 -25 -8 0 -11 -3 -8 -7 9 -8 85 28
91 45 7 17 5 16 -34 -13z"/>
<path d="M11122 8399 c3 -8 25 -17 49 -20 24 -4 73 -19 108 -33 35 -15 65 -25
68 -23 8 9 -87 55 -134 66 -26 6 -59 14 -72 17 -18 5 -23 4 -19 -7z"/>
<path d="M11368 8385 c-3 -14 -5 -25 -4 -26 0 0 20 -2 44 -5 27 -4 42 -2 42 5
0 6 -4 11 -10 11 -5 0 -19 9 -30 20 -26 26 -37 25 -42 -5z"/>
<path d="M11465 8381 c-9 -9 42 -37 70 -39 17 -1 54 -7 83 -13 30 -6 55 -9 58
-7 2 3 -15 15 -39 29 -37 21 -160 43 -172 30z"/>
<path d="M11098 8373 c7 -3 16 -2 19 1 4 3 -2 6 -13 5 -11 0 -14 -3 -6 -6z"/>
<path d="M10805 8360 c-13 -6 -15 -9 -5 -9 8 0 22 4 30 9 18 12 2 12 -25 0z"/>
<path d="M10898 8353 c6 -2 18 -2 25 0 6 3 1 5 -13 5 -14 0 -19 -2 -12 -5z"/>
<path d="M11385 8330 c-8 -13 15 -24 27 -12 6 6 4 11 -6 15 -8 3 -18 2 -21 -3z"/>
<path d="M10636 8307 c-21 -15 -19 -82 3 -82 9 0 14 15 15 48 1 26 1 47 1 47
-1 0 -9 -6 -19 -13z"/>
<path d="M10730 8290 c-18 -43 -9 -56 20 -30 14 12 18 18 10 14 -12 -6 -13 -5
-4 7 9 11 9 17 -1 26 -10 9 -15 6 -25 -17z"/>
<path d="M11555 8303 c11 -7 30 -13 44 -12 l26 0 -25 11 c-14 6 -34 12 -44 13
-18 2 -18 1 -1 -12z"/>
<path d="M10210 8291 c0 -33 11 -51 33 -51 11 0 33 -15 48 -32 23 -28 30 -31
41 -20 11 12 9 16 -9 29 -13 9 -23 22 -23 30 0 10 -6 13 -16 9 -8 -3 -12 -2
-9 4 3 6 16 8 28 5 12 -3 49 1 82 10 l60 15 -98 -5 c-80 -4 -99 -2 -103 10 -9
22 -34 18 -34 -4z"/>
<path d="M11000 8300 c8 -5 28 -10 44 -10 39 0 30 6 -19 13 -27 4 -35 3 -25
-3z"/>
<path d="M11463 8303 c9 -2 23 -2 30 0 6 3 -1 5 -18 5 -16 0 -22 -2 -12 -5z"/>
<path d="M11155 8289 c-5 -7 -3 -10 6 -7 8 3 24 1 36 -3 12 -5 88 -15 169 -24
81 -8 149 -17 151 -19 2 -2 -23 -9 -57 -17 -33 -7 -57 -16 -52 -20 8 -9 119
13 146 28 17 9 16 11 -8 17 -44 11 -186 34 -251 41 -33 3 -76 8 -96 11 -23 3
-40 1 -44 -7z"/>
<path d="M11657 8293 c18 -2 50 -2 70 0 21 2 7 4 -32 4 -38 0 -55 -2 -38 -4z"/>
<path d="M10957 8262 c-15 -15 -27 -33 -27 -40 0 -7 -4 -12 -9 -12 -5 0 -7 -9
-4 -21 5 -17 11 -20 32 -15 14 4 52 9 84 13 31 3 57 9 57 13 0 9 -20 25 -41
33 -13 4 -16 1 -12 -14 9 -33 -11 -21 -33 21 -15 26 -18 41 -10 44 7 3 7 5 0
5 -5 1 -22 -12 -37 -27z"/>
<path d="M11800 8235 c-55 -15 -46 -19 93 -37 81 -10 107 -11 107 -2 0 7 -18
15 -39 19 -22 4 -45 13 -52 21 -14 17 -48 17 -109 -1z"/>
<path d="M10777 8210 c-7 -20 -9 -22 -15 -9 -5 12 -13 14 -27 8 -17 -7 -18 -8
-2 -8 10 -1 21 -10 25 -22 7 -18 10 -19 21 -5 7 8 11 25 9 38 l-3 23 -8 -25z"/>
<path d="M10290 8168 c0 -32 15 -45 24 -21 4 9 0 23 -9 32 -13 14 -15 13 -15
-11z"/>
<path d="M10664 8174 c-10 -8 -13 -13 -6 -9 8 4 12 -2 13 -17 1 -20 2 -21 6
-3 3 11 10 26 15 33 15 17 -4 15 -28 -4z"/>
<path d="M11050 8169 c-30 -9 -68 -20 -84 -24 -21 -4 -27 -10 -23 -25 3 -10 0
-21 -7 -24 -6 -2 -1 -5 12 -5 12 -1 64 17 115 38 50 21 99 42 107 45 8 3 4 4
-9 2 -13 -3 -31 -2 -40 3 -9 4 -40 0 -71 -10z"/>
<path d="M11203 8183 c9 -2 25 -2 35 0 9 3 1 5 -18 5 -19 0 -27 -2 -17 -5z"/>
<path d="M11080 8095 l-25 -14 38 -1 c26 0 37 4 37 15 0 19 -17 19 -50 0z"/>
<path d="M10610 8071 c0 -5 5 -13 10 -16 6 -3 10 -2 10 4 0 5 -4 13 -10 16 -5
3 -10 2 -10 -4z"/>
<path d="M10470 8056 c-16 -15 -74 -36 -98 -36 -12 0 -12 4 3 20 29 33 2 23
-42 -15 -23 -19 -52 -35 -65 -36 l-23 0 23 -10 c13 -5 29 -6 35 -2 7 3 9 3 5
-2 -4 -4 -3 -14 3 -22 13 -15 43 -18 34 -3 -3 6 -1 10 5 10 6 0 9 4 6 9 -3 5
25 21 62 37 65 27 109 52 67 39 -20 -7 -20 -6 -1 9 11 9 15 16 10 16 -5 0 -16
-6 -24 -14z"/>
<path d="M11135 8017 c-38 -19 -85 -39 -103 -47 l-34 -13 32 -25 c29 -23 90
-130 90 -158 0 -7 7 -15 16 -18 9 -4 14 -9 11 -12 -3 -3 -19 2 -36 10 -46 24
-50 19 -11 -16 l35 -31 -30 7 c-16 4 -61 9 -100 11 -53 2 -60 1 -30 -5 22 -4
62 -17 90 -30 60 -28 111 -28 136 -1 18 19 18 20 -15 14 -32 -5 -33 -4 -34 28
0 19 -3 52 -7 74 -7 43 8 78 68 164 20 27 27 46 22 60 -8 28 -18 27 -100 -12z"/>
<path d="M10525 8030 c3 -5 8 -10 11 -10 2 0 4 5 4 10 0 6 -5 10 -11 10 -5 0
-7 -4 -4 -10z"/>
<path d="M10936 8027 c-16 -12 -16 -14 3 -31 20 -18 22 -18 73 4 29 12 57 26
63 31 15 14 -119 11 -139 -4z"/>
<path d="M10715 7960 c-4 -6 -12 -7 -18 -4 -7 4 -9 4 -5 -1 4 -4 3 -14 -3 -22
-9 -10 -8 -13 5 -13 9 0 16 -5 16 -12 0 -26 13 4 14 32 1 33 0 35 -9 20z"/>
<path d="M11549 7933 c-13 -15 -12 -16 9 -11 22 6 31 -6 12 -17 -5 -3 -10 -13
-10 -22 0 -13 3 -13 15 -3 8 7 15 18 15 26 0 7 7 20 16 28 14 15 13 16 -14 16
-16 0 -36 -8 -43 -17z"/>
<path d="M10740 7900 c0 -5 5 -10 11 -10 5 0 7 5 4 10 -3 6 -8 10 -11 10 -2 0
-4 -4 -4 -10z"/>
<path d="M11930 7884 c-30 -13 -65 -24 -78 -24 -15 0 -21 -4 -16 -12 5 -7 2
-9 -7 -6 -8 3 -27 -3 -44 -13 -16 -10 -50 -30 -75 -43 -25 -14 -41 -25 -37
-26 23 -1 317 133 317 145 0 3 -1 4 -2 4 -2 -1 -28 -12 -58 -25z"/>
<path d="M11486 7885 c-11 -8 -17 -17 -14 -20 2 -3 13 4 23 15 21 23 18 25 -9
5z"/>
<path d="M10625 7880 c3 -5 8 -10 11 -10 2 0 4 5 4 10 0 6 -5 10 -11 10 -5 0
-7 -4 -4 -10z"/>
<path d="M9756 7865 c22 -14 119 -55 132 -55 14 1 -122 70 -137 70 -11 0 -10
-4 5 -15z"/>
<path d="M10120 7846 c0 -2 7 -7 16 -10 8 -3 12 -2 9 4 -6 10 -25 14 -25 6z"/>
<path d="M10300 7838 c0 -5 12 -5 28 -2 39 10 41 15 4 12 -18 -1 -32 -6 -32
-10z"/>
<path d="M11915 7803 c-46 -24 -91 -38 -135 -43 -36 -5 -80 -13 -97 -20 -18
-6 -38 -10 -45 -7 -15 5 -86 -20 -108 -38 -8 -7 -39 -16 -68 -20 -33 -4 -52
-11 -49 -18 2 -7 10 -12 18 -13 8 0 25 -2 39 -3 l25 -1 -33 -29 c-39 -35 -86
-48 -107 -31 -10 8 -27 10 -52 5 -21 -5 -56 -9 -78 -10 -22 -1 -51 -7 -64 -15
-23 -12 -23 -14 -7 -25 17 -13 16 -14 -1 -25 -17 -11 -17 -11 2 -5 11 4 43 9
70 11 28 3 66 7 85 9 l34 4 -30 -18 c-38 -23 -51 -69 -26 -88 24 -18 39 -16
61 8 17 18 186 119 199 119 3 0 -5 -11 -17 -24 -12 -13 -23 -31 -25 -39 -1 -8
-19 -33 -39 -56 -41 -45 -46 -61 -19 -61 15 -1 15 -2 -3 -16 -14 -11 -16 -18
-7 -21 15 -6 16 -35 1 -50 -16 -16 7 -80 35 -98 13 -9 28 -26 34 -40 8 -17 22
-26 49 -30 117 -19 249 -69 223 -85 -9 -6 -7 -11 9 -19 17 -10 25 -9 37 4 26
26 12 49 -41 68 -32 11 -58 29 -70 47 -10 16 -24 28 -30 27 -5 -1 -9 6 -9 16
1 9 -4 17 -12 17 -17 0 -48 46 -40 59 3 5 1 11 -6 13 -9 3 -9 6 -1 11 11 7 73
-73 73 -94 0 -6 6 -9 13 -6 6 2 10 13 9 23 -3 15 -1 17 9 7 7 -7 16 -13 20
-13 13 0 -2 38 -22 56 -10 9 -19 23 -19 31 0 9 -14 13 -45 13 -36 0 -50 5 -67
25 -12 14 -29 25 -37 25 -9 1 -2 7 14 14 17 7 36 25 44 39 17 31 35 36 26 7
-6 -18 -4 -19 27 -8 45 16 128 101 128 131 0 13 13 35 28 50 23 23 37 27 83
27 l54 0 -2 77 c-2 68 1 83 22 115 40 60 38 60 -60 11z m-325 -283 c-20 -13
-33 -13 -25 0 3 6 14 10 23 10 15 0 15 -2 2 -10z m31 -347 c17 -20 18 -23 3
-10 -11 9 -23 15 -26 12 -3 -3 -8 1 -11 10 -10 24 7 18 34 -12z m79 -61 c0
-13 -2 -14 -9 -3 -5 8 -14 10 -21 6 -9 -5 -11 -4 -6 3 5 8 -1 12 -16 13 -22 0
-22 1 -3 8 25 11 55 -4 55 -27z"/>
<path d="M10155 7740 c3 -5 8 -10 11 -10 2 0 4 5 4 10 0 6 -5 10 -11 10 -5 0
-7 -4 -4 -10z"/>
<path d="M10120 7729 c0 -5 5 -7 10 -4 6 3 10 8 10 11 0 2 -4 4 -10 4 -5 0
-10 -5 -10 -11z"/>
<path d="M10898 7686 c-72 -24 -172 -87 -189 -118 -17 -31 -3 -32 21 -1 12 15
24 27 26 25 3 -2 17 4 32 14 18 12 27 13 30 6 6 -18 20 -14 18 4 0 10 8 18 19
20 34 5 49 9 65 19 8 5 31 8 50 7 26 -2 31 0 20 7 -12 9 -9 11 15 11 22 0 26
3 15 9 -34 19 -58 19 -122 -3z m76 -1 c-4 -8 -12 -15 -20 -15 -20 0 -17 18 4
23 9 3 18 5 19 6 1 0 0 -6 -3 -14z"/>
<path d="M11372 7601 c-11 -7 -11 -9 1 -14 9 -3 18 1 21 9 6 16 -2 18 -22 5z"/>
<path d="M10975 7542 c3 -9 0 -19 -7 -23 -21 -13 36 -21 67 -9 l30 12 -30 16
c-40 21 -68 23 -60 4z"/>
<path d="M11230 7481 c0 -6 5 -13 10 -16 6 -3 10 1 10 9 0 9 -4 16 -10 16 -5
0 -10 -4 -10 -9z"/>
<path d="M11158 7463 c7 -3 16 -2 19 1 4 3 -2 6 -13 5 -11 0 -14 -3 -6 -6z"/>
<path d="M11106 7444 c-9 -23 -8 -24 12 -23 11 0 12 2 4 6 -10 4 -10 8 -1 19
7 8 7 14 1 14 -5 0 -13 -7 -16 -16z"/>
<path d="M11143 7433 c0 -15 33 -18 41 -4 3 5 -5 11 -17 13 -15 3 -24 0 -24
-9z"/>
<path d="M10675 7389 c-4 -6 -4 -13 -1 -16 3 -4 6 -1 6 5 0 7 4 12 10 12 5 0
7 -8 4 -17 -5 -15 -4 -16 5 -3 6 8 11 18 11 23 0 11 -28 8 -35 -4z"/>
<path d="M11290 7374 c0 -14 41 -77 46 -72 7 8 -12 53 -30 67 -9 7 -16 10 -16
5z"/>
<path d="M10681 7334 c0 -11 3 -14 6 -6 3 7 2 16 -1 19 -3 4 -6 -2 -5 -13z"/>
<path d="M11741 7236 c7 -15 15 -23 17 -16 3 7 -3 19 -13 28 -15 16 -16 15 -4
-12z"/>
<path d="M11356 7220 c9 -33 31 -77 43 -85 5 -3 13 0 17 6 4 7 3 9 -3 6 -8 -5
-43 40 -40 53 0 3 -5 14 -12 25 -11 19 -11 18 -5 -5z"/>
<path d="M11710 7160 c0 -5 5 -10 11 -10 5 0 7 5 4 10 -3 6 -8 10 -11 10 -2 0
-4 -4 -4 -10z"/>
<path d="M11750 7152 c0 -5 14 -21 32 -38 l31 -29 -28 38 c-28 38 -35 44 -35
29z"/>
<path d="M11170 7133 c0 -5 5 -15 10 -23 8 -12 10 -11 10 8 0 12 -4 22 -10 22
-5 0 -10 -3 -10 -7z"/>
<path d="M9785 7120 c3 -5 8 -10 11 -10 2 0 4 5 4 10 0 6 -5 10 -11 10 -5 0
-7 -4 -4 -10z"/>
<path d="M9791 7063 c0 -11 3 -13 6 -5 2 6 10 9 15 6 7 -4 8 -2 4 4 -11 18
-26 14 -25 -5z"/>
<path d="M11482 7037 c46 -42 108 -83 108 -73 0 3 -18 18 -40 32 -22 15 -37
31 -33 37 3 5 1 7 -4 4 -6 -4 -14 0 -17 9 -3 8 -10 13 -15 10 -5 -3 -11 1 -15
9 -3 8 -11 15 -18 15 -7 -1 8 -20 34 -43z"/>
<path d="M11946 7041 c-4 -5 -1 -13 5 -17 8 -4 7 -9 -2 -16 -10 -6 -5 -8 16
-6 22 2 30 8 30 23 0 21 -38 34 -49 16z"/>
<path d="M10963 6983 c-7 -2 -13 -9 -13 -14 0 -14 26 -10 40 6 10 12 10 15 -1
14 -8 0 -20 -3 -26 -6z"/>
<path d="M11147 6970 c7 -26 19 -33 38 -23 12 7 9 12 -14 26 -28 17 -29 16
-24 -3z"/>
<path d="M10584 6965 c-17 -13 -17 -14 -2 -15 9 0 20 5 23 11 11 17 0 20 -21
4z"/>
<path d="M11324 6971 c3 -4 19 -14 36 -21 16 -7 30 -18 30 -25 0 -9 20 -16 54
-20 68 -9 107 -1 51 10 -38 7 -109 34 -147 55 -22 12 -31 13 -24 1z"/>
<path d="M11428 6948 c5 -5 16 -8 23 -6 8 3 3 7 -10 11 -17 4 -21 3 -13 -5z"/>
<path d="M10948 6943 c7 -3 16 -2 19 1 4 3 -2 6 -13 5 -11 0 -14 -3 -6 -6z"/>
<path d="M10802 6895 c4 -4 -3 -16 -15 -26 l-22 -18 22 6 c25 6 37 29 20 39
-7 4 -9 4 -5 -1z"/>
<path d="M11245 6860 c17 -17 31 -26 33 -20 5 15 -27 50 -46 50 -11 0 -7 -9
13 -30z"/>
<path d="M11340 6859 c-9 -17 -8 -25 6 -41 18 -19 19 -19 26 9 14 50 -10 73
-32 32z"/>
<path d="M11338 6793 c15 -28 15 -36 0 -27 -8 5 -9 0 -5 -15 4 -18 0 -24 -24
-33 -35 -12 -30 -26 7 -22 25 2 38 13 47 39 2 6 13 2 24 -8 20 -17 20 -17 15
5 -2 13 -20 36 -40 53 -29 25 -33 26 -24 8z"/>
<path d="M10663 6758 c-10 -11 -8 -18 8 -32 12 -9 24 -15 27 -11 4 3 1 9 -5
13 -6 4 -12 16 -14 26 -3 16 -6 17 -16 4z"/>
<path d="M10945 6751 c-3 -5 -1 -12 5 -16 5 -3 10 1 10 9 0 18 -6 21 -15 7z"/>
<path d="M11310 6740 c0 -5 5 -10 11 -10 5 0 7 5 4 10 -3 6 -8 10 -11 10 -2 0
-4 -4 -4 -10z"/>
<path d="M11817 6733 c-64 -17 -105 -52 -145 -122 l-23 -41 35 0 c26 0 36 5
41 20 5 15 12 18 36 13 19 -3 29 -1 29 6 0 8 -8 10 -20 6 -18 -6 -20 -2 -20
33 0 49 8 56 89 76 36 9 67 19 70 21 8 9 -33 3 -92 -12z"/>
<path d="M11665 6702 c-11 -2 -24 -8 -30 -12 -5 -4 -23 -10 -38 -14 l-28 -7
23 -40 23 -41 23 29 c25 30 56 83 50 87 -2 1 -12 0 -23 -2z"/>
<path d="M10691 6686 c22 -19 46 -23 64 -10 17 13 15 14 -25 14 -24 0 -41 -2
-39 -4z"/>
<path d="M11151 6681 c-14 -4 -26 -12 -29 -19 -5 -16 52 -16 77 0 25 15 58 3
42 -16 -18 -22 4 -29 44 -14 28 9 40 10 55 1 14 -10 21 -9 30 2 10 12 9 16 -6
21 -11 3 -30 10 -44 14 -35 12 -140 18 -169 11z"/>
<path d="M10712 6609 c-14 -17 -22 -39 -20 -57 3 -38 -16 -61 -45 -55 -20 4
-19 2 8 -23 l30 -27 11 40 c19 65 33 86 55 80 10 -3 17 -2 14 3 -3 4 6 11 19
14 38 9 40 33 3 28 -19 -3 -34 1 -41 10 -9 12 -15 10 -34 -13z"/>
<path d="M11534 6607 c-7 -20 3 -37 22 -37 18 0 18 24 -1 40 -12 10 -16 9 -21
-3z"/>
<path d="M11064 6575 c3 -9 0 -15 -8 -15 -7 0 -19 -6 -25 -14 -9 -11 -7 -12
13 -9 13 3 27 0 31 -6 5 -8 -1 -10 -19 -5 -17 4 -26 2 -26 -5 0 -7 -10 -3 -22
9 -12 11 -29 20 -37 20 -11 -1 -8 -8 12 -25 22 -20 24 -25 10 -23 -33 2 -66
-2 -60 -8 4 -4 53 -10 109 -14 57 -4 112 -10 123 -14 11 -4 2 3 -20 16 l-40
23 28 3 c23 3 26 6 16 18 -6 8 -7 14 -2 14 14 0 63 -47 63 -60 0 -5 4 -10 9
-10 19 0 -32 79 -57 88 -15 6 -35 13 -44 17 -13 5 -18 2 -18 -9 0 -9 -4 -16
-10 -16 -5 0 -7 6 -4 14 3 7 -2 16 -12 20 -12 4 -15 2 -10 -9z"/>
<path d="M10525 6562 c-6 -4 -16 -17 -23 -30 -12 -22 -12 -23 8 -12 20 11 37
37 28 45 -2 2 -8 1 -13 -3z"/>
<path d="M11432 6538 c5 -15 81 -54 123 -63 20 -4 5 7 -43 34 -80 45 -85 47
-80 29z"/>
<path d="M11815 6533 c-22 -8 -61 -22 -87 -31 -27 -9 -48 -20 -48 -26 0 -18
59 -101 104 -145 43 -42 44 -43 55 -22 12 22 61 30 61 10 0 -5 5 -7 10 -4 6 3
10 11 10 16 0 6 -4 7 -10 4 -5 -3 -10 -1 -10 5 0 7 7 9 16 6 9 -3 17 -6 20 -6
2 0 -2 -11 -8 -25 -7 -15 -19 -25 -33 -25 -12 0 -30 -7 -41 -15 -19 -14 -18
-14 4 -15 12 0 22 -4 22 -10 0 -5 -3 -9 -7 -9 -24 4 -53 -2 -53 -11 0 -5 5
-10 11 -10 6 0 17 -7 26 -16 12 -11 13 -18 5 -26 -13 -13 -62 8 -62 26 0 6
-12 11 -27 10 -32 -1 -63 -13 -63 -23 0 -4 33 -23 73 -41 39 -18 66 -35 59
-38 -8 -2 -47 12 -89 33 -73 36 -75 36 -95 18 -20 -18 -20 -18 8 -23 26 -5 27
-6 10 -22 -19 -19 -41 -25 -31 -8 3 6 4 10 1 10 -6 0 -96 -60 -96 -65 0 -6 59
1 66 8 4 4 17 7 28 7 20 0 20 -1 -4 -20 -29 -23 -117 -25 -112 -2 1 6 -2 12
-7 12 -15 0 -19 39 -5 51 23 19 17 26 -48 65 -35 21 -94 59 -133 84 -58 39
-132 75 -136 67 -6 -15 -3 -50 7 -69 11 -20 10 -26 -11 -48 -31 -33 -24 -66
16 -74 26 -5 29 -9 29 -46 0 -22 -3 -40 -7 -40 -5 0 -30 -7 -58 -15 l-49 -15
22 20 c12 12 22 25 22 30 0 17 -29 11 -41 -8 -8 -12 -20 -17 -35 -14 -17 3
-26 -1 -30 -14 -4 -11 -19 -29 -33 -40 -25 -21 -25 -21 -4 -28 13 -4 36 1 62
14 23 12 48 19 59 16 11 -4 30 -2 44 3 25 9 25 9 22 -42 -3 -64 2 -72 31 -53
15 10 25 12 27 5 2 -6 14 -1 27 10 13 12 28 21 33 21 5 0 6 5 2 12 -4 7 -3 8
4 4 16 -10 93 15 85 27 -3 6 -1 7 6 3 6 -4 36 2 67 13 32 12 78 21 112 21 66
0 172 -16 183 -27 16 -16 -3 -49 -37 -68 -19 -10 -32 -20 -30 -22 6 -7 152 63
160 76 4 6 4 10 -1 9 -9 -2 -41 7 -86 24 -22 8 -25 13 -15 20 10 8 9 9 -3 5
-16 -5 -82 13 -94 25 -3 3 0 10 7 15 13 11 69 -1 135 -28 36 -15 52 -7 33 16
-10 12 -9 15 6 15 11 0 30 -3 43 -7 23 -6 23 -7 5 -14 -18 -7 -18 -8 2 -8 12
-1 34 -8 50 -16 15 -8 30 -12 33 -10 6 7 4 8 -59 44 -35 20 -48 31 -35 31 11
0 37 -11 58 -25 36 -25 54 -19 19 7 -10 7 -22 18 -26 25 -6 12 17 58 39 76 6
5 3 7 -7 4 -24 -8 -29 2 -12 28 9 14 12 33 8 49 -4 16 -2 26 5 26 6 0 11 9 11
20 0 19 -24 28 -33 13 -2 -5 -2 -2 -1 5 2 6 -3 12 -12 12 -8 0 -17 6 -20 14
-3 8 -13 12 -25 9 -11 -3 -21 1 -25 11 -3 9 -12 16 -19 16 -21 0 -27 47 -9 81
8 17 12 29 7 27 -67 -34 -84 -38 -105 -27 -20 11 -18 13 27 30 27 10 56 25 64
34 19 18 17 18 -34 -2z m129 -279 c5 -13 2 -15 -14 -11 -11 3 -20 1 -20 -4 0
-5 6 -9 14 -9 12 0 31 -29 24 -35 -2 -2 -18 5 -35 15 -31 16 -32 18 -14 34 9
9 21 13 24 9 4 -3 7 -1 7 5 0 17 7 15 14 -4z m-654 -157 c0 -9 12 -12 38 -10
44 5 26 -11 -25 -22 -31 -6 -33 -5 -33 19 0 14 5 26 10 26 6 0 10 -6 10 -13z"/>
<path d="M10779 6522 c-1 -4 0 -20 1 -37 2 -39 20 -59 20 -23 0 15 3 33 6 41
3 8 -2 17 -10 20 -9 4 -16 3 -17 -1z"/>
<path d="M11290 6465 c-6 -15 -8 -30 -6 -33 3 -3 10 8 16 23 6 15 8 30 6 33
-3 3 -10 -8 -16 -23z"/>
<path d="M10901 6449 c-29 -48 -12 -63 39 -36 14 7 46 13 72 12 41 0 45 1 37
17 -12 21 -88 25 -108 6 -10 -11 -11 -10 -6 3 12 32 -15 30 -34 -2z"/>
<path d="M11093 6415 c4 -32 1 -38 -27 -53 -27 -14 -28 -17 -10 -20 18 -3 20
-8 15 -45 -5 -37 -9 -42 -31 -42 -31 0 -50 -12 -50 -31 0 -8 10 -14 26 -14 15
0 33 -8 40 -17 7 -10 14 -13 14 -6 0 6 -7 18 -15 26 -12 13 -10 18 16 40 17
14 26 27 21 31 -15 9 -1 62 20 75 15 9 23 9 34 0 8 -6 14 -7 14 -2 0 5 -11 16
-25 23 -29 15 -32 25 -10 34 10 3 15 -1 16 -12 0 -14 2 -14 8 3 9 21 -11 41
-29 30 -6 -3 -10 -1 -10 4 0 6 -5 11 -10 11 -6 0 -9 -15 -7 -35z"/>
<path d="M11070 6411 c0 -25 6 -27 13 -6 4 8 2 17 -3 20 -6 4 -10 -3 -10 -14z"/>
<path d="M10235 6410 c-3 -5 3 -10 15 -10 12 0 18 5 15 10 -3 6 -10 10 -15 10
-5 0 -12 -4 -15 -10z"/>
<path d="M11667 6387 c-4 -10 -13 -17 -21 -17 -7 0 -16 -7 -20 -15 -3 -8 -2
-15 3 -15 5 0 7 -20 5 -45 -4 -53 18 -72 44 -39 11 14 13 15 9 2 -9 -26 3 -28
28 -2 13 13 31 24 40 24 21 0 19 6 -14 43 -16 17 -38 43 -48 56 -17 21 -21 22
-26 8z"/>
<path d="M11251 6361 l-24 -19 24 -7 c13 -4 55 -25 92 -47 38 -22 74 -41 80
-42 7 -1 19 -6 27 -11 9 -5 6 1 -5 14 -19 22 -158 131 -166 131 -2 0 -15 -9
-28 -19z"/>
<path d="M11505 6350 c-3 -6 1 -7 9 -4 18 7 21 14 7 14 -6 0 -13 -4 -16 -10z"/>
<path d="M10705 6290 c3 -5 12 -10 20 -10 8 0 17 5 20 10 4 6 -5 10 -20 10
-15 0 -24 -4 -20 -10z"/>
<path d="M11097 6219 c7 -7 15 -10 18 -7 3 3 -2 9 -12 12 -14 6 -15 5 -6 -5z"/>
<path d="M11669 6203 c-13 -16 -12 -17 4 -4 9 7 17 15 17 17 0 8 -8 3 -21 -13z"/>
<path d="M10890 6190 c0 -5 4 -10 9 -10 6 0 13 5 16 10 3 6 -1 10 -9 10 -9 0
-16 -4 -16 -10z"/>
<path d="M11528 6167 c18 -21 30 -43 26 -48 -4 -7 3 -9 17 -7 16 2 23 9 21 21
-4 23 7 22 16 -3 7 -18 9 -17 24 15 16 35 16 36 -6 29 -11 -3 -30 -12 -41 -19
-18 -12 -24 -9 -54 18 l-35 32 32 -38z"/>
<path d="M10642 6178 c-12 -12 -17 -38 -7 -38 15 0 54 33 49 41 -7 13 -28 11
-42 -3z"/>
<path d="M11074 6148 c1 -18 -5 -23 -24 -24 -14 -1 -36 -6 -50 -12 -25 -11
-25 -11 -2 -11 20 -1 21 -4 11 -22 -8 -15 -8 -19 0 -15 6 4 11 2 11 -3 0 -6 9
-11 20 -11 11 0 20 7 20 15 0 9 10 16 25 16 44 2 50 5 48 16 -2 8 9 10 32 6
28 -5 35 -2 35 11 0 14 -6 16 -33 11 -26 -5 -36 -2 -55 19 -27 32 -39 33 -38
4z"/>
<path d="M11977 6132 c-10 -11 -14 -23 -9 -26 12 -7 35 19 30 34 -2 7 -11 3
-21 -8z"/>
<path d="M10770 6065 c-19 -21 -21 -25 -7 -25 9 0 17 7 17 15 0 8 5 15 11 15
5 0 7 -4 4 -10 -3 -6 1 -7 10 -4 12 5 13 9 4 20 -14 18 -11 18 -39 -11z"/>
<path d="M10745 6070 c-3 -5 -1 -10 4 -10 6 0 11 5 11 10 0 6 -2 10 -4 10 -3
0 -8 -4 -11 -10z"/>
<path d="M10840 6031 c0 -24 -4 -31 -19 -31 -13 0 -20 -9 -23 -30 -4 -23 -1
-30 13 -30 9 0 22 7 29 15 15 18 21 93 9 101 -5 3 -9 -9 -9 -25z"/>
<path d="M10631 6041 c-8 -5 -9 -11 -3 -15 5 -3 15 1 22 9 14 16 3 20 -19 6z"/>
<path d="M11888 6003 c6 -2 18 -2 25 0 6 3 1 5 -13 5 -14 0 -19 -2 -12 -5z"/>
<path d="M11930 5950 c0 -5 5 -10 11 -10 5 0 7 5 4 10 -3 6 -8 10 -11 10 -2 0
-4 -4 -4 -10z"/>
<path d="M10561 5931 c-12 -21 -6 -27 16 -13 7 5 9 13 4 21 -7 11 -11 9 -20
-8z"/>
<path d="M11854 5915 c-15 -11 -16 -14 -3 -15 8 0 24 7 35 15 15 11 16 14 3
15 -8 0 -24 -7 -35 -15z"/>
<path d="M11463 5875 c-91 -48 -100 -57 -85 -90 10 -21 16 -24 39 -19 36 9 68
28 36 21 -13 -3 -23 -1 -23 5 0 6 -10 8 -22 5 -22 -6 -22 -6 -4 8 11 8 28 15
38 15 11 0 33 7 50 16 25 13 32 14 39 2 8 -11 13 -5 11 13 -1 3 4 6 11 7 60 7
96 14 121 24 26 10 27 12 10 19 -10 4 -49 8 -86 8 -58 1 -76 -4 -135 -34z"/>
<path d="M11945 5890 c-3 -5 -1 -10 4 -10 6 0 11 5 11 10 0 6 -2 10 -4 10 -3
0 -8 -4 -11 -10z"/>
<path d="M11730 5859 c-29 -13 -72 -49 -120 -99 -67 -71 -78 -79 -103 -74 -23
6 -26 9 -15 22 12 14 11 14 -9 1 -21 -13 -21 -14 -5 -32 9 -11 29 -25 43 -33
24 -12 26 -12 22 9 -3 16 6 30 32 50 20 16 42 30 49 31 15 2 174 146 160 145
-5 0 -29 -9 -54 -20z"/>
<path d="M10635 5857 c-8 -4 -15 -17 -15 -28 0 -11 -4 -28 -9 -37 -4 -9 -11
-31 -14 -48 -6 -29 -3 -32 32 -43 47 -14 54 -14 46 -1 -3 6 -15 10 -26 10 -10
0 -19 5 -19 11 0 6 7 9 15 5 8 -3 20 3 27 13 7 10 24 22 37 26 16 5 20 10 11
15 -9 5 -9 9 -1 14 6 4 14 0 17 -8 3 -9 10 -13 15 -10 5 3 9 -5 9 -17 0 -26 7
-23 12 6 1 11 8 26 15 33 7 7 9 20 6 28 -3 9 0 20 8 26 11 8 10 9 -4 4 -10 -3
-26 -6 -35 -6 -16 -1 -15 -2 1 -14 21 -16 22 -26 2 -26 -9 0 -18 7 -22 16 -4
11 -13 14 -29 10 -28 -7 -30 -3 -8 19 15 14 13 16 -20 13 -20 -1 -43 -6 -51
-11z"/>
<path d="M10440 5850 c-8 -5 -12 -11 -10 -14 3 -2 14 2 24 10 22 15 10 19 -14
4z"/>
<path d="M11020 5795 c0 -5 10 -21 21 -35 13 -17 17 -18 10 -5 -17 33 -31 51
-31 40z"/>
<path d="M10450 5771 c-19 -10 -34 -21 -32 -25 1 -3 2 -13 2 -21 0 -18 34 -20
47 -2 16 21 33 67 25 67 -4 0 -23 -8 -42 -19z"/>
<path d="M11468 5763 c-18 -15 -35 -28 -37 -30 -3 -2 0 -8 7 -15 8 -8 21 -4
52 17 40 28 53 55 26 55 -8 0 -29 -12 -48 -27z"/>
<path d="M11922 5773 c-10 -19 -10 -27 0 -45 l13 -23 3 23 c2 12 2 32 0 45
l-3 22 -13 -22z"/>
<path d="M9822 5751 c2 -8 24 -20 49 -27 54 -17 52 -17 38 -1 -6 6 -25 13 -42
14 -17 1 -35 8 -40 15 -7 10 -8 10 -5 -1z"/>
<path d="M11375 5730 c10 -11 14 -20 8 -20 -5 0 -18 -7 -29 -16 -18 -14 -16
-15 25 -9 36 5 42 3 38 -10 -4 -8 -3 -15 1 -15 4 0 17 -3 29 -6 16 -5 9 7 -29
45 -50 50 -79 71 -43 31z"/>
<path d="M11978 5743 c7 -3 16 -2 19 1 4 3 -2 6 -13 5 -11 0 -14 -3 -6 -6z"/>
<path d="M11220 5722 c0 -12 19 -26 26 -19 2 2 -2 10 -11 17 -9 8 -15 8 -15 2z"/>
<path d="M11290 5720 c0 -5 5 -10 10 -10 6 0 10 5 10 10 0 6 -4 10 -10 10 -5
0 -10 -4 -10 -10z"/>
<path d="M9947 5711 c-17 -6 -16 -8 8 -19 34 -16 46 -15 39 2 -3 9 -12 12 -21
9 -11 -4 -14 -2 -9 5 8 13 8 13 -17 3z"/>
<path d="M10225 5680 c-25 -11 1 -11 35 0 20 6 21 8 5 8 -11 0 -29 -3 -40 -8z"/>
<path d="M11070 5676 c0 -17 30 -30 42 -18 5 5 -3 14 -17 20 -20 9 -25 9 -25
-2z"/>
<path d="M11234 5681 c3 -5 -1 -11 -9 -15 -18 -7 -20 -27 -2 -21 10 4 44 8
110 14 5 1 6 5 3 10 -3 4 -16 6 -30 4 -13 -3 -27 0 -30 6 -4 6 -16 11 -27 11
-11 0 -18 -4 -15 -9z"/>
<path d="M10023 5673 c9 -2 23 -2 30 0 6 3 -1 5 -18 5 -16 0 -22 -2 -12 -5z"/>
<path d="M10821 5664 c0 -11 3 -14 6 -6 3 7 2 16 -1 19 -3 4 -6 -2 -5 -13z"/>
<path d="M11914 5664 c4 -10 -3 -14 -24 -14 -40 0 -142 -49 -148 -72 -4 -15
-11 -17 -41 -13 -24 4 -6 -7 53 -31 70 -29 91 -35 94 -24 3 8 15 24 28 37 27
27 59 31 50 7 -4 -11 -2 -15 8 -11 10 4 17 -3 21 -24 9 -40 22 -37 34 9 16 56
15 61 -35 107 -25 23 -43 36 -40 29z"/>
<path d="M9945 5658 c-11 -6 -24 -17 -28 -25 -5 -7 -12 -11 -16 -8 -5 2 -16
-4 -26 -15 -10 -11 -23 -20 -29 -20 -6 0 -34 -15 -61 -32 -28 -18 -63 -39 -78
-47 -15 -8 -27 -18 -27 -23 0 -7 96 41 158 79 24 15 29 8 10 -17 -7 -9 2 0 20
19 17 20 49 51 69 69 39 34 40 38 8 20z"/>
<path d="M11955 5660 c3 -5 8 -10 11 -10 2 0 4 5 4 10 0 6 -5 10 -11 10 -5 0
-7 -4 -4 -10z"/>
<path d="M10072 5628 c-23 -18 -42 -38 -42 -46 0 -8 12 -4 33 12 19 15 37 26
40 26 3 0 18 5 34 11 22 8 24 12 13 19 -23 15 -34 12 -78 -22z"/>
<path d="M11395 5643 c38 -29 144 -73 161 -66 11 4 15 3 10 -5 -4 -7 9 -15 36
-23 24 -6 46 -13 51 -16 4 -2 7 -2 7 1 0 6 -80 51 -116 64 -123 46 -167 59
-149 45z"/>
<path d="M11330 5631 c0 -5 8 -12 18 -15 9 -3 25 -20 34 -37 10 -16 22 -27 28
-24 16 10 12 33 -10 48 -11 8 -17 16 -14 19 3 3 0 9 -7 14 -8 4 -10 3 -5 -4 9
-15 1 -15 -25 -2 -12 7 -19 7 -19 1z"/>
<path d="M10225 5593 l-18 -28 27 24 c28 26 31 31 17 31 -5 0 -17 -12 -26 -27z"/>
<path d="M10897 5603 c-3 -5 -8 -25 -11 -45 -5 -34 -4 -37 25 -43 17 -4 33 -4
36 -1 4 3 -4 6 -16 6 -25 0 -39 26 -22 43 13 13 15 47 2 47 -6 0 -12 -3 -14
-7z"/>
<path d="M11075 5599 c-4 -6 -5 -12 -2 -15 2 -3 7 2 10 11 7 17 1 20 -8 4z"/>
<path d="M10523 5582 c-16 -13 -21 -26 -18 -50 3 -38 -11 -31 -17 8 -2 20 -8
24 -27 22 -31 -3 -38 -9 -24 -23 8 -8 13 -8 17 0 4 6 12 11 17 11 5 0 3 -10
-6 -23 -20 -31 -2 -106 21 -86 11 9 14 8 14 -4 0 -30 -20 -67 -35 -67 -9 0
-13 -4 -10 -10 3 -5 16 -10 28 -10 20 0 22 6 25 55 2 40 0 55 -10 55 -10 0
-10 2 -1 8 7 5 17 30 22 56 5 27 15 52 22 57 7 4 11 10 9 13 -3 2 -15 -3 -27
-12z"/>
<path d="M11137 5586 c-3 -8 -1 -16 5 -18 13 -5 2 -28 -13 -28 -6 0 -8 4 -4 9
3 5 1 12 -4 15 -5 4 -8 -2 -6 -11 2 -10 4 -24 4 -30 1 -20 19 -15 26 6 3 11
13 18 23 15 9 -1 39 -6 65 -9 40 -5 46 -9 37 -20 -7 -8 -15 -14 -18 -13 -4 0
-20 0 -37 -1 -27 -1 -28 -2 -13 -17 14 -14 21 -13 83 16 45 21 71 28 77 22 7
-7 -18 -25 -77 -54 -100 -51 -99 -54 13 -87 39 -12 72 -24 72 -28 0 -3 -24 -3
-52 0 l-53 7 45 -40 c25 -21 64 -49 88 -62 51 -27 62 -19 62 50 0 37 -3 42
-22 43 -17 1 -19 2 -5 6 23 6 21 29 -8 88 -50 98 -76 136 -88 127 -7 -6 -40
-13 -74 -17 -65 -7 -103 4 -103 30 0 19 -16 19 -23 1z"/>
<path d="M10673 5579 c24 -14 21 -29 -6 -29 -37 0 -95 -50 -103 -88 -8 -42 -2
-48 35 -29 28 14 32 14 56 -5 14 -11 25 -25 25 -32 0 -14 49 -19 70 -6 12 7
12 12 -4 29 -14 15 -17 30 -13 57 5 30 2 40 -16 55 -12 11 -16 18 -8 17 29 -6
20 20 -10 31 -39 14 -50 14 -26 0z m38 -66 c13 -16 12 -17 -3 -4 -10 7 -18 15
-18 17 0 8 8 3 21 -13z m-21 -65 c0 -13 -23 -5 -28 10 -2 7 2 10 12 6 9 -3 16
-11 16 -16z"/>
<path d="M9912 5558 c-14 -14 -16 -44 -3 -52 5 -3 11 10 13 29 2 19 4 35 3 35
-1 0 -6 -5 -13 -12z"/>
<path d="M9986 5544 c-4 -10 -14 -14 -26 -11 -11 3 -23 0 -27 -6 -9 -15 36
-49 58 -42 11 4 21 -1 28 -12 6 -10 11 -13 11 -6 0 6 -5 15 -10 18 -7 4 -6 14
1 28 9 20 9 20 -4 5 -21 -27 -30 -22 -23 12 6 32 2 40 -8 14z"/>
<path d="M11895 5550 c-3 -5 -1 -10 4 -10 6 0 11 5 11 10 0 6 -2 10 -4 10 -3
0 -8 -4 -11 -10z"/>
<path d="M11443 5539 c-13 -4 -23 -12 -23 -16 0 -23 67 -143 80 -143 11 0 12
-2 3 -8 -8 -5 -12 -33 -11 -81 2 -103 40 -146 93 -107 17 12 17 16 5 31 -11
13 -23 15 -52 11 -21 -4 -38 -4 -38 0 0 5 30 51 47 73 2 2 33 9 70 16 57 9 67
14 65 29 -2 13 1 16 15 12 13 -4 19 -1 20 12 1 15 -4 18 -21 15 -16 -3 -25 1
-30 13 -8 20 9 34 40 34 13 0 24 8 27 20 4 16 -4 22 -52 35 -31 9 -78 24 -106
34 -69 25 -106 30 -132 20z m205 -153 c4 -16 0 -18 -28 -12 -18 3 -47 6 -64 7
-29 1 -28 2 14 14 57 17 74 15 78 -9z"/>
<path d="M10366 5531 c-11 -17 14 -85 26 -73 7 7 6 22 -4 48 -9 23 -18 33 -22
25z"/>
<path d="M10960 5508 c0 -11 4 -17 9 -13 5 3 17 -2 26 -12 10 -10 34 -17 57
-17 21 -1 42 -6 46 -12 4 -6 15 -11 24 -11 14 0 15 3 7 14 -6 7 -18 13 -25 13
-8 0 -14 5 -14 10 0 6 -7 10 -15 10 -8 0 -15 5 -15 11 0 7 -12 8 -32 4 -22 -4
-28 -3 -19 3 9 7 5 11 -18 14 -25 4 -31 1 -31 -14z"/>
<path d="M10307 5488 c-10 -11 -17 -24 -15 -29 2 -6 13 1 25 15 26 30 17 42
-10 14z"/>
<path d="M10875 5480 c3 -5 16 -10 28 -9 21 0 21 1 2 9 -28 12 -37 12 -30 0z"/>
<path d="M9550 5445 c0 -8 7 -15 16 -15 14 0 14 3 4 15 -7 8 -14 15 -16 15 -2
0 -4 -7 -4 -15z"/>
<path d="M11825 5450 c3 -5 13 -10 21 -10 8 0 12 5 9 10 -3 6 -13 10 -21 10
-8 0 -12 -4 -9 -10z"/>
<path d="M10960 5435 c0 -8 4 -15 9 -15 5 0 11 7 15 15 3 9 0 15 -9 15 -8 0
-15 -7 -15 -15z"/>
<path d="M10821 5403 c-1 -17 5 -23 19 -23 11 0 20 5 20 10 0 6 -6 10 -14 10
-8 0 -17 6 -19 13 -3 6 -6 2 -6 -10z"/>
<path d="M11088 5406 c23 -12 23 -14 6 -30 -10 -11 -25 -15 -38 -12 -12 3 -28
-2 -39 -11 -14 -13 -22 -15 -36 -6 -21 13 -82 7 -93 -10 -6 -9 -10 -9 -17 2
-12 19 -30 5 -24 -19 5 -18 3 -19 -20 -11 -29 11 -50 -5 -26 -20 11 -7 12 -9
1 -9 -8 0 -23 -10 -34 -22 l-20 -23 6 25 c21 85 23 79 -25 73 -57 -7 -64 -15
-45 -51 20 -39 20 -42 -3 -42 -33 0 -32 -17 2 -31 68 -28 171 -149 126 -149
-6 0 -9 -6 -6 -14 3 -8 -2 -16 -13 -19 -15 -4 -18 -11 -14 -33 3 -16 9 -31 14
-34 5 -3 5 -12 0 -20 -6 -8 -10 -11 -10 -7 0 4 -8 3 -18 -2 -11 -6 -25 -6 -37
1 -11 5 -4 -3 15 -19 19 -15 38 -29 42 -29 5 -1 13 -2 18 -3 6 0 10 -7 10 -15
0 -8 14 -24 30 -36 37 -27 30 -46 -10 -25 -38 19 -48 19 -46 -2 0 -10 -5 -18
-11 -19 -7 -1 -18 -2 -23 -3 -24 -3 -60 -55 -60 -85 1 -31 31 -130 44 -144 9
-8 -3 46 -14 67 -10 19 -1 48 16 55 19 7 30 -22 15 -37 -9 -9 -11 -7 -6 8 5
16 5 17 -4 4 -6 -9 -7 -28 -3 -44 8 -28 8 -28 21 16 18 61 61 119 109 149 23
14 49 40 59 58 21 38 23 38 54 11 16 -13 20 -22 12 -25 -7 -3 -38 -22 -70 -43
-88 -57 -138 -121 -132 -167 0 -4 -5 -10 -11 -14 -20 -12 0 -32 26 -27 13 2
21 1 19 -4 -3 -4 -1 -10 5 -14 5 -3 10 -15 10 -26 0 -13 4 -18 12 -13 8 5 9 2
5 -10 -4 -10 -3 -15 3 -11 6 3 10 1 10 -5 0 -6 11 -8 24 -6 14 2 35 2 47 -1
22 -6 22 -7 3 -14 -13 -5 -14 -8 -4 -8 9 -1 30 15 49 34 23 25 28 35 17 35 -9
0 -16 5 -16 10 0 6 9 10 20 10 11 0 20 5 20 10 0 6 -8 10 -19 10 -21 0 -36 16
-44 48 -3 15 -1 22 9 22 12 0 12 4 -1 24 -10 15 -14 33 -9 50 6 27 18 33 29
16 3 -5 21 -10 38 -10 21 0 28 -3 19 -9 -11 -7 -11 -9 2 -14 20 -8 29 7 21 36
-4 15 -4 18 3 8 5 -7 16 -11 23 -9 9 3 4 11 -15 23 -22 15 -31 16 -45 7 -32
-24 -44 -25 -57 -8 -16 23 3 61 22 45 7 -6 25 -9 40 -7 26 3 27 4 12 19 -13
13 -14 19 -5 28 9 9 8 11 -5 6 -13 -5 -18 -2 -18 9 0 8 -9 20 -20 26 -11 6
-17 16 -14 22 4 6 3 8 -4 5 -14 -9 -43 3 -36 14 3 5 -4 9 -15 9 -25 0 -37 -18
-21 -33 10 -9 12 -8 7 6 -4 9 -2 17 3 17 6 0 10 -9 10 -20 0 -25 2 -25 -57 1
-39 17 -44 23 -29 28 17 7 16 9 -8 24 -53 35 -20 72 39 44 41 -20 39 -1 -4 27
-30 20 -56 55 -48 63 3 2 16 -1 29 -7 12 -7 -1 9 -30 35 -28 26 -49 51 -46 57
4 6 1 16 -7 22 -8 6 -21 20 -29 31 -8 11 2 5 23 -13 21 -18 56 -44 78 -57 40
-26 53 -49 22 -39 -16 5 -16 4 1 -10 10 -8 23 -13 28 -10 4 3 11 -1 14 -10 3
-8 19 -18 35 -21 16 -4 27 -10 24 -15 -3 -4 4 -6 14 -3 16 4 66 -19 81 -38 10
-13 97 -26 118 -18 12 5 24 4 27 -1 11 -18 41 -11 42 10 2 18 -8 25 -30 21 -5
-1 -6 2 -3 7 7 11 -29 50 -57 63 -12 5 -30 14 -39 21 -23 17 -32 5 -17 -21 18
-28 6 -36 -31 -21 -46 19 -41 54 21 123 28 31 57 57 64 57 24 0 36 -35 25 -66
-12 -32 2 -56 21 -37 14 14 21 65 8 57 -5 -3 -9 2 -9 11 0 9 -7 28 -16 43
l-16 27 25 -27 26 -28 45 24 c33 17 41 27 33 35 -6 6 -17 11 -24 11 -7 0 -13
4 -13 9 0 24 -73 85 -122 102 -62 22 -94 24 -60 5z m17 -76 c3 -5 -3 -10 -14
-10 -12 0 -21 5 -21 10 0 6 6 10 14 10 8 0 18 -4 21 -10z m15 -50 c0 -13 -11
-13 -30 0 -12 8 -11 10 8 10 12 0 22 -4 22 -10z m-231 -18 c6 -11 7 -31 2 -48
l-8 -29 -21 42 c-12 23 -22 45 -22 48 0 14 40 3 49 -13z m75 -8 c21 -8 20 -56
-2 -84 -36 -45 -68 4 -40 65 12 26 17 29 42 19z m56 -8 c0 -3 -4 -8 -10 -11
-5 -3 -10 -1 -10 4 0 6 5 11 10 11 6 0 10 -2 10 -4z m42 -13 c28 -33 33 -47
15 -40 -10 3 -17 2 -17 -3 0 -13 -42 -50 -57 -50 -7 0 -13 9 -13 21 0 11 5 17
10 14 6 -3 10 3 10 15 0 21 20 60 31 60 3 0 13 -8 21 -17z m-32 -156 c0 5 4 3
8 -3 4 -6 29 -21 55 -34 27 -14 51 -28 54 -33 7 -11 -60 18 -137 59 -80 44
-104 66 -32 30 28 -15 52 -23 52 -19z m157 -83 c-3 -3 -12 -4 -19 -1 -8 3 -5
6 6 6 11 1 17 -2 13 -5z m-167 -146 c0 -4 -4 -8 -9 -8 -6 0 -12 4 -15 8 -3 5
1 9 9 9 8 0 15 -4 15 -9z"/>
<path d="M10511 5278 c0 -21 3 -38 8 -38 12 0 51 49 51 64 0 6 -8 -1 -18 -16
-9 -16 -20 -28 -24 -28 -4 0 -9 12 -11 28 -3 22 -4 20 -6 -10z"/>
<path d="M10480 5283 c0 -15 -2 -16 -9 -4 -8 12 -11 9 -16 -12 -5 -17 -2 -31
7 -41 13 -13 16 -9 25 30 6 24 6 44 2 44 -5 0 -9 -8 -9 -17z"/>
<path d="M11265 5230 c-7 -12 53 -28 80 -21 17 4 16 6 -8 12 -16 4 -36 5 -44
2 -11 -4 -14 -2 -9 5 4 7 3 12 -3 12 -5 0 -12 -4 -16 -10z"/>
<path d="M10500 5199 c0 -26 3 -30 10 -19 8 13 10 12 10 -2 0 -10 5 -18 10
-18 6 0 3 14 -6 33 -23 44 -24 45 -24 6z"/>
<path d="M11391 5148 c1 -29 4 -66 8 -83 l7 -30 6 30 c4 20 20 40 43 57 l37
26 -38 26 c-56 38 -64 35 -63 -26z"/>
<path d="M10160 5158 c-12 -22 -12 -22 6 -6 10 10 15 20 12 24 -4 3 -12 -5
-18 -18z"/>
<path d="M10590 5130 c-12 -23 4 -52 59 -104 17 -16 28 -33 25 -37 -3 -5 2 -6
10 -3 9 3 16 1 16 -5 0 -6 5 -11 11 -11 6 0 9 8 7 18 -2 10 -12 16 -23 15 -11
-1 -14 0 -7 3 20 9 13 24 -12 24 -25 0 -56 48 -56 88 0 30 -17 36 -30 12z"/>
<path d="M11850 5141 c0 -5 7 -12 16 -15 14 -5 15 -4 4 9 -14 17 -20 19 -20 6z"/>
<path d="M10305 5070 c0 -33 6 -37 25 -15 9 10 9 15 1 15 -6 0 -11 7 -11 15 0
8 -3 15 -7 15 -5 0 -8 -13 -8 -30z"/>
<path d="M10545 5065 c30 -24 45 -31 45 -19 0 11 -45 43 -60 44 -9 0 -3 -10
15 -25z"/>
<path d="M10935 5031 c11 -13 39 -32 63 -43 23 -11 40 -23 38 -26 -3 -3 2 -11
11 -17 15 -11 16 -15 3 -31 -14 -17 -14 -18 3 -5 20 16 42 3 52 -30 8 -25 30
-24 110 5 103 37 102 40 -21 62 -115 21 -112 20 -181 50 -17 8 -35 14 -39 14
-4 0 -19 10 -33 23 l-26 22 20 -24z m245 -111 c0 -5 -2 -10 -4 -10 -3 0 -8 5
-11 10 -3 6 -1 10 4 10 6 0 11 -4 11 -10z"/>
<path d="M10133 5020 c-2 -22 12 -35 22 -20 12 20 27 10 23 -15 -3 -13 -2 -22
3 -20 4 3 9 -5 11 -17 l3 -23 13 22 c10 19 10 29 -3 60 -12 27 -18 34 -24 24
-6 -9 -11 -10 -15 -2 -11 18 -32 13 -33 -9z"/>
<path d="M11350 5036 c0 -2 8 -10 18 -17 15 -13 16 -12 3 4 -13 16 -21 21 -21
13z"/>
<path d="M10539 5007 c5 -14 6 -28 1 -33 -5 -5 -11 -22 -14 -38 -7 -38 -12
-41 -41 -28 -14 6 -25 9 -25 6 0 -3 16 -12 35 -20 20 -8 33 -19 29 -25 -3 -6
3 -5 15 3 25 16 28 29 4 22 -10 -2 -3 3 15 13 32 16 50 52 38 72 -4 6 -20 20
-36 31 l-30 21 9 -24z"/>
<path d="M10220 5001 c0 -6 4 -13 10 -16 6 -3 7 1 4 9 -7 18 -14 21 -14 7z"/>
<path d="M10120 4964 c0 -8 5 -12 10 -9 6 3 10 10 10 16 0 5 -4 9 -10 9 -5 0
-10 -7 -10 -16z"/>
<path d="M10336 4924 c7 -3 10 -13 8 -22 -3 -11 4 -21 21 -29 22 -10 25 -9 25
7 0 17 -40 51 -57 49 -4 0 -3 -3 3 -5z"/>
<path d="M10213 4912 c-8 -5 -9 -13 -3 -22 8 -13 10 -12 10 3 0 11 4 15 12 11
7 -4 8 -3 4 4 -8 14 -8 14 -23 4z"/>
<path d="M10680 4911 c0 -19 52 -71 71 -71 30 0 23 14 -26 49 -25 18 -45 28
-45 22z"/>
<path d="M10411 4830 c-12 -60 -13 -180 -2 -180 3 0 7 -11 7 -24 2 -27 44
-116 55 -116 16 0 18 32 3 47 -13 13 -13 17 -2 24 10 7 9 9 -3 9 -20 0 -49 66
-49 111 0 26 2 28 19 20 30 -16 34 12 5 34 -24 18 -29 41 -18 83 6 19 9 21 23
10 10 -8 9 -4 -4 12 -11 14 -20 26 -21 28 -1 1 -7 -25 -13 -58z"/>
<path d="M11368 4883 c12 -2 32 -2 45 0 12 2 2 4 -23 4 -25 0 -35 -2 -22 -4z"/>
<path d="M11203 4846 c-34 -13 -64 -23 -66 -22 -1 0 6 -7 17 -17 12 -11 22
-14 24 -8 2 6 12 11 23 11 11 0 22 7 25 15 4 10 13 13 26 9 15 -4 19 -3 13 7
-4 8 2 3 13 -11 25 -30 36 -23 19 13 -14 32 -15 32 -94 3z"/>
<path d="M10585 4852 c-20 -14 -32 -57 -24 -81 11 -28 30 -17 49 30 11 25 11
33 -1 44 -8 8 -19 11 -24 7z"/>
<path d="M10656 4817 c-33 -86 -16 -106 30 -34 24 38 30 55 22 64 -19 23 -35
14 -52 -30z"/>
<path d="M10320 4796 c0 -2 7 -7 16 -10 8 -3 12 -2 9 4 -6 10 -25 14 -25 6z"/>
<path d="M11235 4790 c4 -6 11 -8 16 -5 14 9 11 15 -7 15 -8 0 -12 -5 -9 -10z"/>
<path d="M10365 4781 c-3 -5 -1 -12 5 -16 5 -3 10 1 10 9 0 18 -6 21 -15 7z"/>
<path d="M10123 4733 c9 -2 23 -2 30 0 6 3 -1 5 -18 5 -16 0 -22 -2 -12 -5z"/>
<path d="M9490 4724 c0 -17 17 -36 24 -26 3 5 -1 15 -9 22 -8 7 -15 9 -15 4z"/>
<path d="M10217 4707 c23 -14 57 -28 75 -32 53 -12 53 -16 -1 -47 -29 -16 -49
-33 -46 -38 7 -11 77 -32 83 -25 3 3 -10 11 -28 19 l-33 13 49 18 c27 9 55 19
62 21 7 2 12 14 10 26 -3 20 -14 25 -88 39 -47 9 -94 19 -105 24 -11 4 -1 -4
22 -18z"/>
<path d="M11850 4712 c0 -4 14 -13 31 -19 31 -12 31 -12 14 7 -18 20 -45 27
-45 12z"/>
<path d="M10977 4703 c-10 -16 15 -40 48 -47 l30 -7 -31 20 c-18 11 -34 25
-36 32 -3 9 -7 9 -11 2z"/>
<path d="M10040 4658 c-9 -20 -9 -21 2 -7 7 9 20 18 28 22 12 4 12 6 -2 6 -10
1 -22 -9 -28 -21z"/>
<path d="M10522 4658 c7 -12 18 -26 25 -31 7 -4 19 -14 27 -22 12 -13 15 -12
20 2 8 20 -27 57 -62 68 -22 6 -22 5 -10 -17z"/>
<path d="M11088 4668 c5 -5 19 -4 33 1 23 10 22 10 -8 8 -18 0 -29 -5 -25 -9z"/>
<path d="M10610 4613 c0 -18 2 -33 4 -33 9 0 13 39 5 51 -6 10 -9 4 -9 -18z"/>
<path d="M10079 4569 c-8 -5 -31 -14 -51 -19 -35 -10 -74 -50 -48 -50 6 0 8
-5 4 -11 -4 -7 2 -7 17 1 30 16 39 25 17 17 -21 -8 -36 12 -17 24 8 4 16 3 20
-3 4 -6 12 -7 18 -4 15 10 14 -19 -1 -36 -23 -24 -18 -36 12 -34 16 1 33 6 37
10 4 5 -4 6 -19 2 -31 -7 -37 4 -13 24 8 7 15 8 15 2 0 -6 15 -4 38 4 47 17
69 17 75 2 3 -10 9 -10 23 -2 27 16 23 28 -12 36 -17 4 -3 6 36 3 l65 -4 -64
19 c-81 24 -134 31 -152 19z m71 -37 c0 -5 -13 -7 -30 -4 -16 2 -30 6 -30 8 0
2 14 4 30 4 17 0 30 -4 30 -8z"/>
<path d="M10646 4567 c3 -8 11 -14 19 -14 11 0 12 4 4 14 -6 7 -15 13 -20 13
-5 0 -6 -6 -3 -13z"/>
<path d="M10610 4561 c0 -5 5 -13 10 -16 6 -3 10 -2 10 4 0 5 -4 13 -10 16 -5
3 -10 2 -10 -4z"/>
<path d="M11975 4531 c-6 -5 -26 -11 -45 -13 -45 -4 -53 -36 -16 -66 32 -25
33 -32 2 -32 -30 0 -39 -21 -21 -48 10 -13 22 -18 40 -15 14 3 25 1 25 -5 0
-6 9 -16 19 -21 18 -10 19 -5 20 99 2 104 -3 122 -24 101z"/>
<path d="M10305 4521 c3 -6 -10 -8 -32 -6 l-38 5 32 -11 c37 -13 96 -4 72 12
-19 12 -42 12 -34 0z"/>
<path d="M11036 4521 c-8 -13 46 -21 64 -9 12 7 10 8 -7 5 -13 -3 -23 -1 -23
4 0 12 -27 12 -34 0z"/>
<path d="M11191 4514 c12 -15 10 -16 -18 -10 -18 4 -40 3 -50 -3 -16 -9 -16
-11 5 -12 37 -3 41 -4 54 -16 10 -10 4 -13 -27 -13 -55 -1 -140 -31 -140 -50
0 -8 -4 -21 -9 -28 -5 -9 -1 -15 13 -19 12 -3 21 -11 21 -18 0 -9 14 -11 50
-7 50 5 61 -3 38 -26 -9 -9 10 -22 82 -56 80 -38 97 -43 122 -34 29 10 50 41
62 90 4 20 16 30 52 42 l45 15 47 -34 c56 -40 262 -150 262 -139 0 4 8 0 18
-8 19 -17 133 -61 139 -54 9 9 -18 45 -38 51 -11 4 -63 31 -114 60 -51 29 -91
46 -88 38 4 -11 -4 -9 -33 6 -21 12 -45 21 -52 21 -7 0 -11 4 -7 9 3 6 -3 9
-14 8 -11 0 -17 -5 -15 -9 10 -16 -7 -7 -55 27 -26 19 -53 35 -58 35 -6 0 -35
11 -64 23 -80 35 -106 48 -84 42 35 -11 4 11 -71 49 -79 40 -93 44 -73 20z"/>
<path d="M10378 4503 c6 -2 18 -2 25 0 6 3 1 5 -13 5 -14 0 -19 -2 -12 -5z"/>
<path d="M10145 4470 c3 -5 8 -10 11 -10 2 0 4 5 4 10 0 6 -5 10 -11 10 -5 0
-7 -4 -4 -10z"/>
<path d="M10850 4459 c0 -5 9 -9 20 -9 11 0 20 2 20 4 0 2 -9 6 -20 9 -11 3
-20 1 -20 -4z"/>
<path d="M11530 4416 c0 -2 7 -7 16 -10 8 -3 12 -2 9 4 -6 10 -25 14 -25 6z"/>
<path d="M10100 4399 c0 -5 5 -7 12 -3 7 4 8 3 4 -4 -4 -7 0 -22 10 -34 12
-17 15 -18 10 -5 -3 10 -6 27 -6 38 0 10 -7 19 -15 19 -8 0 -15 -5 -15 -11z"/>
<path d="M10205 4366 c-4 -25 -5 -51 -2 -58 3 -7 6 1 6 19 1 17 5 43 11 57 5
15 6 26 0 26 -5 0 -12 -20 -15 -44z"/>
<path d="M11861 4283 c0 -10 3 -13 5 -6 3 7 13 9 22 6 15 -4 15 -3 2 6 -22 15
-30 14 -29 -6z"/>
<path d="M10920 4271 c0 -5 9 -7 20 -4 11 3 20 7 20 9 0 2 -9 4 -20 4 -11 0
-20 -4 -20 -9z"/>
<path d="M11946 4262 c-3 -5 6 -7 19 -4 24 4 35 -11 15 -21 -6 -3 -5 -4 2 -3
7 2 13 9 13 17 0 16 -40 25 -49 11z"/>
<path d="M10935 4251 c-3 -5 -1 -12 5 -16 5 -3 10 1 10 9 0 18 -6 21 -15 7z"/>
<path d="M10961 4244 c0 -11 3 -14 6 -6 3 7 2 16 -1 19 -3 4 -6 -2 -5 -13z"/>
<path d="M10990 4238 c-10 -20 -9 -21 2 -7 8 9 22 19 33 22 18 4 18 5 -2 6
-14 1 -26 -7 -33 -21z"/>
<path d="M9839 4246 c0 0 -3 -14 -5 -30 -5 -26 -3 -28 23 -24 27 4 28 2 25
-29 l-4 -32 -32 16 c-30 15 -30 15 -16 -2 8 -10 15 -25 15 -33 0 -19 124 -47
139 -32 9 9 -48 40 -74 40 -5 0 -10 4 -10 9 0 12 98 61 121 61 9 0 22 7 29 15
10 12 7 15 -17 21 -15 3 -36 8 -47 11 -16 5 -145 13 -147 9z"/>
<path d="M10855 4220 c-8 -9 -15 -24 -15 -32 0 -9 -6 -19 -12 -21 -10 -4 -10
-6 0 -6 6 -1 12 -11 12 -23 -1 -22 -2 -22 -14 -5 -12 15 -14 16 -20 2 -3 -8
-3 -22 1 -31 4 -12 0 -14 -20 -9 -13 4 -28 2 -31 -3 -4 -6 3 -8 16 -4 16 4 19
2 13 -8 -5 -9 -4 -11 3 -6 7 4 12 1 12 -6 1 -7 8 0 17 16 l15 29 18 -23 c11
-15 22 -20 30 -15 10 6 9 11 -5 21 -10 8 -15 17 -12 21 4 4 13 1 19 -5 17 -17
33 -15 18 3 -6 8 -9 19 -5 25 5 7 12 5 21 -7 13 -17 13 -17 14 0 0 10 7 20 15
23 29 12 16 40 -30 61 -42 19 -45 19 -60 3z m29 1 c3 -5 -3 -11 -15 -14 -16
-4 -18 -3 -8 9 13 16 16 17 23 5z m-7 -66 c0 -8 -4 -15 -9 -15 -10 0 -11 14
-1 23 9 10 10 9 10 -8z"/>
<path d="M10188 4195 c2 -19 10 -39 17 -45 11 -9 11 -4 1 29 -15 52 -23 59
-18 16z"/>
<path d="M11104 4196 c-11 -35 -5 -56 23 -84 7 -7 13 -17 13 -22 0 -8 67 4 77
13 2 3 8 22 13 42 l8 37 -54 24 c-30 13 -58 24 -62 24 -4 0 -12 -15 -18 -34z"/>
<path d="M10986 4211 c-11 -4 -15 -10 -9 -14 5 -3 19 0 29 8 20 15 11 18 -20
6z"/>
<path d="M10087 4184 c-8 -13 4 -64 14 -64 11 0 11 41 0 59 -5 7 -11 9 -14 5z"/>
<path d="M11010 4181 c0 -14 57 -71 63 -64 3 2 10 -5 17 -16 13 -26 30 -27 30
-3 0 14 -2 14 -9 3 -7 -11 -11 -5 -16 22 -4 20 -12 40 -19 45 -18 15 -66 23
-66 13z"/>
<path d="M10963 4133 c-18 -7 -16 -23 2 -23 8 0 15 7 15 15 0 8 -1 15 -2 14
-2 0 -9 -3 -15 -6z"/>
<path d="M10222 4071 c-11 -6 -9 -9 6 -13 15 -4 19 -2 15 8 -6 16 -4 16 -21 5z"/>
<path d="M11982 4065 c-11 -12 -10 -15 3 -15 8 0 15 7 15 15 0 18 -2 18 -18 0z"/>
<path d="M10731 4053 c-1 -12 9 -32 22 -45 12 -13 16 -16 9 -7 -7 9 -17 30
-22 45 -7 24 -8 25 -9 7z"/>
<path d="M10155 4009 c-21 -8 -21 -8 38 -13 6 -1 14 -4 17 -7 3 -3 20 -11 38
-17 30 -10 32 -10 22 8 -6 11 -22 21 -35 22 -46 2 -50 3 -55 9 -3 4 -14 3 -25
-2z"/>
<path d="M10357 3999 c7 -7 15 -10 18 -7 3 3 -2 9 -12 12 -14 6 -15 5 -6 -5z"/>
<path d="M10921 3993 c-1 -12 4 -25 9 -28 12 -7 12 2 0 30 -8 19 -9 19 -9 -2z"/>
<path d="M10535 3953 c81 -40 205 -136 226 -175 8 -15 8 -19 0 -14 -6 4 -11 4
-11 -1 0 -4 11 -13 25 -19 29 -14 40 -4 75 74 18 40 21 55 12 64 -7 7 -12 8
-12 2 0 -5 -6 2 -13 15 -6 13 -21 30 -33 37 -19 13 -20 13 -16 -16 2 -17 -2
-40 -11 -54 -15 -22 -15 -25 -1 -30 23 -9 42 -8 27 2 -12 7 -6 62 7 62 4 0 13
-7 21 -16 10 -12 10 -22 1 -48 -7 -18 -12 -42 -12 -54 0 -12 -1 -22 -3 -22 -1
0 -41 37 -87 83 -88 86 -166 133 -239 144 -30 4 -22 -2 44 -34z"/>
<path d="M10332 3960 c7 -11 34 -27 60 -36 55 -18 63 -33 16 -26 -20 3 -29 1
-23 -4 50 -44 65 -55 97 -69 35 -14 37 -14 31 2 -3 10 -11 25 -17 33 -5 8 4 2
22 -14 18 -17 32 -35 32 -41 0 -6 23 -18 50 -27 l50 -16 0 24 c0 13 -10 32
-22 44 -12 11 -17 20 -11 20 7 0 21 -12 33 -27 12 -16 27 -28 33 -28 7 0 18
-4 25 -8 6 -5 12 -5 12 0 0 4 -20 21 -45 36 -24 16 -47 37 -50 48 -5 13 -12
18 -24 14 -22 -7 -101 25 -120 49 -7 9 -18 16 -23 16 -6 0 -4 -8 3 -17 10 -12
4 -10 -18 5 -17 12 -40 22 -51 22 -12 0 -32 4 -46 10 -24 9 -25 8 -14 -10z"/>
<path d="M10995 3950 c3 -5 8 -10 11 -10 2 0 4 5 4 10 0 6 -5 10 -11 10 -5 0
-7 -4 -4 -10z"/>
<path d="M11096 3934 c-3 -9 -13 -14 -20 -11 -10 4 -18 -5 -25 -25 -16 -46
-13 -78 13 -133 l23 -50 7 70 c3 39 8 91 11 118 4 49 2 58 -9 31z"/>
<path d="M10257 3903 c-4 -3 -1 -13 6 -21 10 -13 8 -14 -18 -8 l-30 6 28 -25
c15 -14 35 -25 44 -25 14 0 14 2 -3 16 -19 15 -19 16 1 9 39 -13 85 -17 85 -8
0 31 -92 77 -113 56z"/>
<path d="M10970 3871 c5 -18 14 -39 21 -47 6 -8 8 -14 4 -14 -4 0 7 -18 24
-39 34 -43 41 -61 14 -40 -12 10 -10 2 7 -29 14 -24 31 -49 39 -55 9 -7 7 3
-7 26 -24 42 -27 51 -12 42 11 -7 -75 163 -91 179 -5 6 -5 -4 1 -23z"/>
<path d="M10199 3863 c-9 -47 1 -62 41 -63 l25 -1 -27 -15 c-16 -8 -28 -23
-28 -34 0 -10 -8 -21 -17 -23 -10 -2 -6 -3 9 -1 15 2 30 -1 33 -6 3 -5 18 -7
34 -4 21 5 35 0 56 -20 34 -32 37 -32 29 -2 l-6 24 42 -20 c23 -12 47 -32 52
-44 6 -13 16 -24 22 -24 16 1 48 48 41 60 -4 6 1 24 9 42 9 17 15 32 14 33 -2
2 -26 14 -55 29 -47 23 -60 25 -138 21 -47 -3 -84 -1 -81 4 3 4 -2 15 -12 23
-26 22 -42 30 -43 21z m206 -73 c3 -6 -1 -7 -9 -4 -18 7 -21 14 -7 14 6 0 13
-4 16 -10z"/>
<path d="M11922 3748 c-13 -17 -32 -86 -32 -118 1 -42 19 0 24 54 2 26 10 53
16 61 7 8 10 15 7 15 -2 0 -9 -6 -15 -12z"/>
<path d="M10606 3711 c-3 -4 13 -25 34 -46 22 -22 40 -35 40 -31 0 14 -69 86
-74 77z"/>
<path d="M10200 3702 c0 -12 51 -58 85 -75 l30 -16 -31 -1 c-42 0 -58 -20 -39
-47 8 -11 12 -23 9 -26 -3 -3 4 -10 15 -16 11 -6 32 -23 47 -36 15 -14 39 -25
54 -25 15 0 33 -7 40 -15 7 -8 29 -15 49 -15 43 0 71 -14 48 -23 -8 -3 -18
-24 -22 -47 -6 -33 -3 -46 10 -59 15 -15 16 -14 10 14 l-6 30 16 -32 c16 -31
39 -43 82 -43 28 0 38 -17 22 -37 -11 -13 -10 -18 9 -33 l22 -18 -34 3 c-19 2
-48 10 -65 19 -17 9 -44 18 -61 20 -16 2 -38 9 -47 17 -17 13 -17 13 0 -7 20
-24 11 -40 -11 -21 -13 10 -14 9 -8 -1 4 -7 22 -19 39 -26 l32 -14 -32 -1
c-40 -1 -41 -10 -8 -49 14 -17 25 -34 24 -39 -4 -22 3 -23 27 -4 15 12 31 21
36 21 6 0 24 10 40 22 26 18 34 19 50 9 14 -9 24 -9 31 -2 7 7 5 12 -6 17 -14
5 -15 8 -2 20 11 12 19 12 36 4 11 -6 27 -9 34 -6 11 4 8 18 -15 63 -17 32
-30 63 -30 69 0 16 -28 26 -35 14 -4 -6 2 -10 11 -10 10 0 14 -3 11 -6 -3 -4
-23 1 -43 11 -34 16 -35 19 -29 52 3 19 14 50 23 69 14 30 14 36 2 47 -8 6
-11 8 -7 3 23 -29 -60 -49 -105 -25 -16 9 -19 8 -13 -3 5 -7 -3 -3 -17 10 -14
13 -41 31 -59 40 -18 9 -39 28 -48 42 -14 21 -9 19 34 -13 28 -20 59 -44 69
-54 18 -17 19 -17 13 6 -3 14 -1 31 5 38 8 10 6 13 -6 13 -30 0 -64 44 -59 73
3 15 3 27 0 27 -3 0 -55 18 -116 40 -61 22 -111 36 -111 32z m390 -545 c10 -4
8 -6 -7 -6 -12 -1 -30 -4 -40 -7 -15 -5 -16 -4 -3 6 11 9 12 13 2 17 -6 2 -9
9 -6 15 4 5 12 4 22 -5 10 -8 24 -17 32 -20z"/>
<path d="M10525 3650 c3 -5 11 -10 16 -10 6 0 7 5 4 10 -3 6 -11 10 -16 10 -6
0 -7 -4 -4 -10z"/>
<path d="M11956 3642 c-68 -39 -75 -57 -61 -167 8 -59 40 -122 80 -155 13 -11
13 -15 3 -22 -10 -7 -10 -9 2 -5 13 3 15 33 17 185 1 100 -1 182 -5 181 -4 0
-20 -8 -36 -17z"/>
<path d="M10750 3640 c0 -5 5 -10 11 -10 5 0 7 5 4 10 -3 6 -8 10 -11 10 -2 0
-4 -4 -4 -10z"/>
<path d="M10840 3546 c0 -12 7 -13 31 -6 46 13 48 20 6 20 -25 0 -37 -4 -37
-14z"/>
<path d="M10581 3530 c-11 -6 -8 -11 9 -20 27 -14 32 -10 16 12 -8 10 -17 14
-25 8z"/>
<path d="M11015 3490 c0 -36 1 -37 25 -29 22 8 23 8 8 -5 -10 -7 -18 -16 -18
-19 0 -10 57 -37 76 -37 9 0 47 -25 85 -55 37 -30 70 -55 72 -55 9 0 -165 170
-184 181 -11 6 -27 8 -35 5 -8 -3 -14 -1 -14 4 0 6 7 10 16 10 21 0 13 21 -12
30 -17 7 -19 3 -19 -30z"/>
<path d="M10630 3500 c0 -5 5 -10 10 -10 6 0 10 5 10 10 0 6 -4 10 -10 10 -5
0 -10 -4 -10 -10z"/>
<path d="M10729 3459 c-1 -13 -2 -58 -4 -99 -3 -72 16 -150 36 -150 7 0 59 82
59 93 0 3 -8 3 -19 0 -37 -9 -81 103 -52 133 6 5 4 16 -5 28 -14 19 -14 19
-15 -5z"/>
<path d="M10775 3470 c3 -5 11 -10 16 -10 6 0 7 5 4 10 -3 6 -11 10 -16 10 -6
0 -7 -4 -4 -10z"/>
<path d="M10652 3461 c-11 -7 -11 -9 2 -14 10 -4 16 -1 16 8 0 17 -1 17 -18 6z"/>
<path d="M10787 3444 c-3 -4 6 -23 21 -43 14 -20 27 -38 29 -40 2 -2 5 -2 8 1
4 3 -6 23 -20 44 -32 47 -30 45 -38 38z"/>
<path d="M11398 3443 c7 -3 16 -2 19 1 4 3 -2 6 -13 5 -11 0 -14 -3 -6 -6z"/>
<path d="M11445 3430 c11 -5 27 -9 35 -9 9 0 8 4 -5 9 -11 5 -27 9 -35 9 -9 0
-8 -4 5 -9z"/>
<path d="M11559 3419 c-6 -3 -22 -4 -37 -1 -61 11 -8 -8 128 -46 181 -51 286
-75 303 -69 7 3 5 6 -5 6 -10 1 -18 6 -18 12 0 5 -4 8 -9 4 -5 -3 -12 -1 -16
4 -3 6 -13 8 -23 5 -16 -5 -16 -4 -1 7 14 10 -4 18 -113 46 -71 18 -133 31
-139 28 -5 -4 -9 -1 -9 4 0 11 -43 11 -61 0z"/>
<path d="M11675 3003 c19 -11 30 -24 27 -35 -2 -9 2 -27 8 -38 l12 -22 26 24
c58 52 64 49 10 -4 -32 -31 -58 -61 -58 -67 0 -5 -22 -21 -48 -36 -30 -16 -48
-33 -49 -45 -2 -19 -1 -19 20 0 11 11 32 20 45 20 24 0 24 -1 8 -25 -9 -14
-23 -36 -32 -50 -9 -14 -12 -25 -7 -25 5 0 19 17 31 38 43 74 73 117 69 96 -2
-12 2 -32 10 -45 13 -23 14 -23 8 14 -3 20 -3 37 0 37 5 0 74 -48 175 -123
l65 -49 3 117 c2 78 -1 122 -9 131 -20 25 -30 15 -14 -15 14 -28 14 -30 -3
-28 -13 1 -17 7 -14 23 8 45 -85 93 -129 66 -14 -9 -17 -9 -13 2 3 7 16 19 30
26 13 7 22 15 20 18 -3 2 -15 -3 -27 -12 -14 -9 -28 -12 -38 -7 -9 5 -38 11
-66 14 -27 3 -59 8 -70 12 -11 3 -6 -2 10 -12z m143 -148 c-3 -3 -9 2 -12 12
-6 14 -5 15 5 6 7 -7 10 -15 7 -18z"/>
<path d="M10070 2845 c-7 -9 -8 -15 -2 -15 5 0 12 7 16 15 3 8 4 15 2 15 -2 0
-9 -7 -16 -15z"/>
<path d="M10211 2828 c-12 -19 -11 -23 10 -39 13 -10 29 -18 34 -18 6 0 4 3
-2 6 -7 2 -13 20 -13 39 0 39 -9 43 -29 12z"/>
<path d="M10286 2805 c-3 -9 -6 -24 -5 -33 0 -9 5 -4 10 12 9 32 6 48 -5 21z"/>
<path d="M10167 2803 c-4 -3 -7 -14 -7 -24 0 -9 -7 -19 -15 -23 -21 -8 -19
-28 2 -24 10 2 20 17 24 38 8 37 7 44 -4 33z"/>
<path d="M11522 2749 c-51 -34 -121 -97 -84 -75 6 4 12 2 12 -3 0 -6 -6 -11
-12 -11 -24 0 -57 -46 -56 -76 1 -24 5 -30 20 -29 22 2 70 57 66 76 -2 6 3 14
11 17 8 3 11 0 7 -7 -13 -21 7 -11 50 25 l44 35 -10 -28 -10 -28 18 24 c9 14
22 37 29 52 10 23 9 27 -3 22 -8 -3 -14 -12 -14 -20 0 -10 -7 -14 -20 -10 -11
3 -23 1 -26 -4 -3 -5 -14 -9 -25 -9 -29 0 -14 17 21 25 19 4 30 13 30 24 0 9
5 22 12 29 22 22 1 12 -60 -29z m-102 -139 c0 -5 -5 -10 -11 -10 -5 0 -7 5 -4
10 3 6 8 10 11 10 2 0 4 -4 4 -10z m30 -4 c0 -3 -4 -8 -10 -11 -5 -3 -10 -1
-10 4 0 6 5 11 10 11 6 0 10 -2 10 -4z"/>
<path d="M11715 2779 c-4 -6 -5 -12 -2 -15 2 -3 7 2 10 11 7 17 1 20 -8 4z"/>
<path d="M11185 2772 c6 -6 54 -36 109 -67 64 -37 102 -53 108 -47 10 10 -122
89 -161 97 -11 2 -30 9 -43 16 -13 6 -18 7 -13 1z"/>
<path d="M10033 2750 c-30 -12 -29 -26 2 -46 34 -22 57 -12 53 23 -3 30 -20
37 -55 23z m14 -26 c-3 -3 -12 -4 -19 -1 -8 3 -5 6 6 6 11 1 17 -2 13 -5z"/>
<path d="M10180 2740 c0 -5 4 -10 9 -10 6 0 13 5 16 10 3 6 -1 10 -9 10 -9 0
-16 -4 -16 -10z"/>
<path d="M11770 2731 c0 -6 4 -13 10 -16 6 -3 7 1 4 9 -7 18 -14 21 -14 7z"/>
<path d="M10483 2700 c73 -32 104 -39 72 -17 -21 15 -112 47 -129 47 -6 -1 20
-14 57 -30z"/>
<path d="M11660 2700 c-6 -11 -8 -20 -6 -20 3 0 10 9 16 20 6 11 8 20 6 20 -3
0 -10 -9 -16 -20z"/>
<path d="M9404 2699 l-29 -7 33 -1 c19 -1 31 -5 27 -11 -3 -5 -2 -10 4 -10 5
0 12 4 15 8 3 5 18 7 34 4 16 -2 32 1 36 6 7 12 -78 20 -120 11z"/>
<path d="M9608 2693 c6 -2 18 -2 25 0 6 3 1 5 -13 5 -14 0 -19 -2 -12 -5z"/>
<path d="M10019 2653 c-13 -15 -12 -15 9 -4 23 12 28 21 13 21 -5 0 -15 -7
-22 -17z"/>
<path d="M11623 2642 c-1 -22 0 -24 9 -8 6 10 6 22 2 26 -5 5 -10 -3 -11 -18z"/>
<path d="M9389 2646 c9 -11 9 -15 -1 -20 -7 -3 -3 -4 9 -2 12 2 24 -1 26 -8 3
-6 13 -1 26 13 11 13 19 27 16 30 -4 3 -10 -1 -15 -9 -7 -12 -12 -12 -22 -2
-6 6 -21 12 -31 12 -16 0 -17 -3 -8 -14z"/>
<path d="M10756 2651 c5 -6 29 -13 54 -16 l45 -5 -45 15 c-53 17 -68 19 -54 6z"/>
<path d="M10986 2644 c-34 -19 -32 -21 64 -64 89 -39 170 -90 223 -136 41 -37
64 -45 47 -16 -5 9 -18 37 -29 62 -20 48 -66 110 -83 110 -6 0 -8 -7 -4 -15 3
-8 -10 0 -29 19 -53 53 -133 70 -189 40z"/>
<path d="M9967 2620 c-30 -24 -45 -25 -75 -4 -27 18 -29 4 -4 -19 22 -20 75
-22 89 -4 11 13 24 47 19 47 -2 0 -15 -9 -29 -20z"/>
<path d="M10110 2636 c0 -2 7 -7 16 -10 8 -3 12 -2 9 4 -6 10 -25 14 -25 6z"/>
<path d="M11551 2624 c0 -11 3 -14 6 -6 3 7 2 16 -1 19 -3 4 -6 -2 -5 -13z"/>
<path d="M10196 2595 c10 -8 24 -14 29 -14 6 0 1 6 -9 14 -11 8 -24 15 -30 15
-5 0 -1 -7 10 -15z"/>
<path d="M10926 2593 c-11 -11 -6 -50 7 -61 16 -14 253 -108 292 -116 l30 -6
-42 39 c-61 56 -270 161 -287 144z"/>
<path d="M11550 2578 c0 -9 5 -20 10 -23 13 -8 13 5 0 25 -8 13 -10 13 -10 -2z"/>
<path d="M10240 2576 c0 -3 9 -10 20 -16 11 -6 20 -8 20 -6 0 3 -9 10 -20 16
-11 6 -20 8 -20 6z"/>
<path d="M11576 2554 c-7 -18 0 -34 15 -34 12 0 12 37 0 44 -5 3 -12 -1 -15
-10z"/>
<path d="M10310 2536 c0 -3 9 -10 20 -16 11 -6 20 -8 20 -6 0 3 -9 10 -20 16
-11 6 -20 8 -20 6z"/>
<path d="M10906 2501 c5 -5 20 -12 34 -15 l25 -7 -25 15 c-28 17 -50 21 -34 7z"/>
<path d="M11716 2501 c-15 -6 -5 -10 39 -19 72 -15 106 -16 86 -3 -8 5 -21 7
-29 3 -11 -4 -13 -1 -7 8 6 10 0 11 -31 6 -28 -5 -35 -4 -24 3 13 10 13 11 0
10 -8 0 -24 -4 -34 -8z"/>
<path d="M9722 2470 c-34 -4 -65 -10 -69 -14 -4 -4 22 -4 57 -1 36 4 103 10
150 14 l85 8 -80 0 c-44 0 -108 -3 -143 -7z"/>
<path d="M10900 2471 c0 -15 88 -90 123 -104 76 -32 80 -29 24 19 -57 50 -78
77 -51 67 7 -3 14 0 14 6 0 16 -31 26 -39 13 -5 -8 -17 -9 -39 -3 -18 5 -32 6
-32 2z"/>
<path d="M10220 2458 c0 -25 40 -79 66 -88 14 -6 65 -9 114 -8 73 3 85 5 67
14 -20 11 -20 12 -1 17 10 2 -4 5 -32 6 -55 1 -113 21 -153 52 -27 22 -61 25
-61 7z"/>
<path d="M10390 2460 c-21 -7 -21 -8 -5 -9 11 0 27 4 35 9 18 11 5 11 -30 0z"/>
<path d="M9585 2452 c-11 -2 -27 -6 -35 -9 -8 -3 -20 -5 -27 -4 -6 1 -15 -4
-19 -10 -4 -8 -3 -9 4 -5 7 4 12 3 12 -3 0 -6 16 -4 41 4 23 8 50 15 60 15 11
0 19 4 19 9 0 10 -14 10 -55 3z"/>
<path d="M11020 2450 c0 -6 14 -13 31 -17 21 -4 26 -8 18 -14 -10 -6 -9 -10 6
-15 11 -5 20 -3 23 4 2 7 11 12 20 12 16 -1 16 -2 0 -14 -13 -10 -15 -15 -6
-24 16 -16 -4 -15 -21 1 -11 10 -13 9 -9 -3 5 -17 38 -21 39 -5 0 6 8 18 17
28 13 15 14 20 3 27 -8 4 -19 6 -26 4 -6 -3 -28 2 -48 11 -43 18 -47 18 -47 5z"/>
<path d="M11190 2390 c0 -10 40 -40 52 -40 17 0 6 16 -22 32 -17 9 -30 13 -30
8z"/>
<path d="M11145 2380 c-3 -5 1 -10 9 -10 9 0 16 5 16 10 0 6 -4 10 -9 10 -6 0
-13 -4 -16 -10z"/>
<path d="M11268 2363 c7 -3 16 -2 19 1 4 3 -2 6 -13 5 -11 0 -14 -3 -6 -6z"/>
<path d="M11242 2343 c-6 -3 -9 -10 -6 -15 5 -8 -3 -9 -24 -5 -90 19 -87 14
15 -22 62 -22 127 -40 145 -41 92 -5 99 7 18 29 -25 7 -60 19 -78 27 -18 7
-35 13 -39 13 -3 -1 -9 4 -12 9 -3 5 -12 7 -19 5z"/>
<path d="M11834 2327 c10 -7 31 -22 45 -35 l26 -23 -35 5 c-113 16 -213 26
-217 22 -3 -2 17 -8 44 -12 64 -9 76 -18 33 -24 -24 -4 7 -10 94 -18 80 -8
137 -19 152 -29 24 -15 24 -15 24 21 0 30 -4 36 -21 36 -11 0 -30 5 -41 11
-16 9 -19 8 -13 -3 3 -7 -4 -1 -17 13 -25 29 -59 49 -80 48 -8 0 -6 -5 6 -12z
m86 -78 c11 -7 1 -8 -35 -3 -27 4 -52 8 -54 10 -10 9 76 3 89 -7z"/>
<path d="M11585 2310 c11 -5 29 -8 40 -8 16 0 15 2 -5 8 -34 11 -60 11 -35 0z"/>
<path d="M11550 2277 c19 -6 39 -16 43 -21 6 -8 10 -7 14 2 2 6 11 12 19 12 9
0 12 5 9 10 -3 6 -32 10 -63 9 -56 -1 -57 -1 -22 -12z"/>
<path d="M10030 2263 c-9 -10 -16 -25 -16 -33 -1 -27 -16 -50 -32 -50 -9 0
-12 -3 -6 -8 5 -4 49 -5 99 -2 l90 5 -42 19 c-53 23 -86 54 -79 72 7 19 4 18
-14 -3z"/>
<path d="M10230 2231 c0 -6 4 -13 10 -16 6 -3 7 1 4 9 -7 18 -14 21 -14 7z"/>
<path d="M11465 2205 c76 -44 89 -44 39 0 -26 23 -49 34 -69 34 -27 0 -25 -3
30 -34z"/>
<path d="M10169 2187 c8 -10 26 -17 45 -16 l31 1 -31 7 c-17 4 -37 12 -45 16
-12 8 -12 6 0 -8z"/>
<path d="M11428 2163 c6 -2 18 -2 25 0 6 3 1 5 -13 5 -14 0 -19 -2 -12 -5z"/>
<path d="M10393 2153 c9 -2 23 -2 30 0 6 3 -1 5 -18 5 -16 0 -22 -2 -12 -5z"/>
<path d="M11478 2153 c6 -2 18 -2 25 0 6 3 1 5 -13 5 -14 0 -19 -2 -12 -5z"/>
<path d="M10473 2143 c9 -2 23 -2 30 0 6 3 -1 5 -18 5 -16 0 -22 -2 -12 -5z"/>
<path d="M11535 2143 c11 -3 23 -10 26 -15 4 -6 13 -7 20 -3 15 10 -13 24 -46
23 l-20 0 20 -5z"/>
<path d="M9915 2130 c-3 -6 1 -7 9 -4 18 7 21 14 7 14 -6 0 -13 -4 -16 -10z"/>
<path d="M10230 2124 c52 -16 80 -18 80 -5 0 4 -21 11 -46 15 -72 9 -84 6 -34
-10z"/>
<path d="M10535 2133 c-11 -3 -24 -9 -29 -14 -12 -11 27 -12 115 -2 64 7 64 7
24 14 -44 9 -80 9 -110 2z"/>
<path d="M10380 2100 c0 -5 7 -7 15 -4 8 4 15 8 15 10 0 2 -7 4 -15 4 -8 0
-15 -4 -15 -10z"/>
<path d="M10271 2029 c-13 -17 -36 -36 -50 -42 -42 -17 -132 -118 -125 -139 4
-14 -2 -21 -25 -29 -17 -6 -31 -14 -32 -17 -3 -31 -11 -58 -20 -69 -21 -24 -1
-14 115 57 22 13 46 25 55 27 82 15 91 15 91 -1 0 -9 5 -16 11 -16 5 0 8 4 5
9 -4 5 10 5 32 0 20 -5 46 -8 57 -8 l20 0 -20 9 c-11 4 -37 27 -59 49 -35 38
-41 41 -74 35 l-35 -7 21 31 c13 17 35 33 52 37 38 8 39 11 31 59 -8 49 -20
53 -50 15z m18 -23 c-11 -20 -25 -36 -30 -36 -5 0 3 18 17 40 33 49 43 46 13
-4z"/>
<path d="M10005 1967 c5 -17 3 -27 -4 -27 -6 0 -8 -12 -4 -30 6 -34 -18 -62
-47 -53 -9 3 -11 2 -4 -4 6 -4 14 -20 17 -34 11 -44 33 -43 56 2 26 48 26 56
4 62 -10 3 -4 5 14 6 47 2 48 16 3 63 -38 39 -41 40 -35 15z"/>
<path d="M10749 1783 c-5 -13 -9 -31 -9 -39 0 -8 -7 -14 -15 -14 -8 0 -15 -7
-15 -15 0 -8 7 -15 16 -15 18 0 57 -25 125 -82 54 -44 88 -50 90 -15 1 12 2
38 3 57 2 44 -25 102 -58 123 -26 18 -40 10 -49 -28 -3 -16 -6 -14 -12 12 -6
25 -13 32 -37 35 -24 4 -31 0 -39 -19z"/>
<path d="M10258 1758 c9 -9 15 -9 24 0 9 9 7 12 -12 12 -19 0 -21 -3 -12 -12z"/>
<path d="M10333 1743 c-3 -10 -9 -22 -12 -28 -3 -5 5 -3 18 5 24 16 29 32 12
38 -6 2 -14 -5 -18 -15z"/>
<path d="M10050 1712 c-43 -21 -55 -32 -53 -49 1 -11 -3 -23 -10 -26 -9 -3
-12 6 -10 32 3 33 2 34 -7 11 -8 -17 -13 -21 -19 -12 -6 10 -18 4 -49 -20 -44
-36 -56 -54 -45 -71 4 -6 14 -1 27 15 12 14 33 33 49 43 l28 18 -12 -29 c-6
-16 -13 -40 -15 -53 -10 -53 -18 -54 -67 -10 -51 44 -66 67 -78 114 -6 26 -7
25 -6 -13 0 -26 8 -53 18 -66 10 -13 16 -32 13 -44 -5 -18 -9 -19 -37 -10 -17
6 -42 23 -55 37 -13 14 -21 20 -17 14 10 -20 -3 -15 -42 14 -30 23 -34 24 -26
8 6 -11 27 -32 45 -47 19 -15 35 -34 35 -43 0 -23 -14 -18 -20 7 -4 12 -9 20
-12 17 -4 -5 12 -66 20 -77 6 -7 54 11 50 19 -6 8 38 6 145 -10 36 -5 67 -8
69 -5 2 2 -3 4 -11 4 -9 0 -21 7 -28 15 -11 13 -8 13 24 0 37 -16 48 -7 21 15
-25 21 -16 94 13 105 27 10 34 -10 12 -38 -13 -17 -17 -28 -10 -32 13 -8 10
-11 45 45 15 25 43 62 63 83 32 33 34 39 22 52 -13 13 -22 11 -70 -13z m-200
-187 c11 -13 10 -14 -4 -9 -9 3 -16 10 -16 15 0 13 6 11 20 -6z"/>
<path d="M10494 1682 c-10 -14 3 -23 98 -64 65 -28 124 -48 146 -48 47 0 33
13 -43 39 -33 11 -89 36 -125 55 -60 32 -67 33 -76 18z"/>
<path d="M10207 1623 c-25 -33 -16 -39 12 -9 12 13 19 26 14 29 -4 3 -16 -6
-26 -20z"/>
<path d="M10988 1629 c-36 -14 -45 -39 -14 -39 37 0 56 10 56 31 0 21 -3 22
-42 8z"/>
<path d="M11310 1615 c-17 -10 -20 -14 -9 -15 9 0 22 7 29 15 15 18 12 18 -20
0z"/>
<path d="M9605 1601 c-6 -11 33 -41 55 -41 10 0 5 9 -14 25 -33 28 -33 28 -41
16z"/>
<path d="M10293 1572 c-13 -2 -23 -8 -23 -13 0 -5 -6 -9 -13 -9 -22 0 -81 -55
-73 -68 10 -17 26 -5 26 19 0 11 7 19 17 19 9 0 24 7 33 15 15 13 22 13 67 0
33 -10 59 -12 74 -7 23 9 23 9 -5 16 -15 4 -31 4 -35 2 -4 -3 -17 2 -27 12
-10 9 -29 16 -41 14z"/>
<path d="M10955 1555 c-77 -7 -194 -15 -260 -18 -82 -4 -130 -11 -150 -22 -28
-15 -21 -15 120 -10 88 4 162 2 180 -4 26 -8 27 -9 7 -10 -13 -1 -20 -5 -17
-11 4 -6 15 -8 25 -5 14 4 18 1 17 -13 -1 -16 -5 -18 -32 -9 -25 7 -38 5 -68
-13 -20 -12 -37 -26 -37 -31 0 -13 -68 -11 -107 3 -18 6 -36 8 -40 4 -5 -5 -2
-11 5 -13 20 -8 13 -25 -8 -19 -11 3 -30 9 -41 12 -16 4 -19 3 -14 -6 6 -9 4
-11 -5 -5 -8 5 -25 10 -39 11 -14 1 -37 6 -50 10 -22 7 -23 5 -17 -20 l7 -27
-42 22 c-29 15 -53 19 -76 16 -30 -5 -33 -4 -28 13 3 10 1 21 -5 25 -6 3 -7
11 -4 17 8 12 -42 6 -109 -13 -32 -8 -36 -13 -26 -25 6 -7 9 -23 6 -34 -6 -23
7 -36 46 -45 40 -10 55 7 48 52 -5 29 -11 38 -26 38 -16 0 -19 -6 -17 -27 4
-37 -16 -45 -28 -12 -13 34 -4 45 48 50 37 3 40 1 45 -24 3 -15 1 -32 -4 -38
-11 -13 30 -34 66 -34 20 0 25 -5 25 -24 0 -13 -6 -27 -12 -29 -9 -4 -8 -6 2
-6 8 -1 21 9 29 21 12 20 11 24 -15 45 -16 13 -24 23 -17 23 6 0 15 -5 19 -11
3 -6 17 -8 31 -4 16 4 22 2 18 -4 -3 -7 0 -8 9 -5 9 3 16 1 16 -4 0 -6 12 -13
28 -15 l27 -4 -27 -2 c-30 -1 -39 -21 -10 -22 12 0 11 -3 -7 -10 -19 -8 -21
-12 -11 -24 7 -8 20 -15 29 -14 12 0 12 2 -3 8 -18 7 -18 8 -2 14 10 4 39 7
64 7 26 0 99 14 162 30 63 16 102 27 85 25 -16 -3 -79 -10 -138 -16 -87 -10
-110 -10 -120 1 -7 7 -7 10 -2 7 6 -3 33 -1 60 4 28 6 68 11 90 13 40 4 92 11
154 22 18 3 47 11 65 19 29 13 117 46 161 60 20 7 20 7 0 15 -15 5 -8 9 30 15
28 5 54 8 58 6 5 -1 6 3 2 9 -3 5 2 10 12 10 15 0 16 2 3 10 -12 8 -12 10 3
16 17 6 17 8 1 25 -9 11 -24 18 -33 18 -9 -1 -79 -7 -156 -14z"/>
<path d="M11710 1520 c0 -5 5 -10 11 -10 5 0 7 5 4 10 -3 6 -8 10 -11 10 -2 0
-4 -4 -4 -10z"/>
<path d="M10418 1493 c6 -2 18 -2 25 0 6 3 1 5 -13 5 -14 0 -19 -2 -12 -5z"/>
<path d="M10368 1483 c6 -2 18 -2 25 0 6 3 1 5 -13 5 -14 0 -19 -2 -12 -5z"/>
<path d="M11180 1475 c-14 -8 -50 -22 -80 -31 -30 -9 -93 -31 -140 -49 -47
-18 -94 -36 -105 -39 -11 -3 -2 -3 20 0 40 5 39 5 -20 -24 -62 -30 -103 -66
-87 -76 12 -7 68 9 98 29 30 19 26 20 65 -15 19 -16 37 -30 42 -30 16 0 6 -20
-10 -20 -23 -1 -93 -39 -73 -40 12 0 13 -2 1 -9 -16 -10 -7 -16 39 -26 35 -8
35 -8 10 -17 -28 -11 -189 -12 -217 -1 -16 6 -16 5 -4 -11 19 -22 48 -38 91
-47 19 -4 72 -21 117 -37 44 -16 93 -32 108 -36 l26 -7 -18 28 -17 28 23 -20
23 -20 22 28 c18 22 30 27 67 27 25 0 49 -4 55 -10 6 -6 15 -6 24 0 12 8 11
10 -7 10 -23 0 -40 17 -28 28 4 4 10 1 12 -5 3 -7 14 -13 25 -13 14 0 18 -5
14 -16 -3 -9 -6 -20 -6 -25 0 -6 -8 -9 -17 -8 -28 4 -62 -10 -73 -31 -13 -23
16 -43 96 -65 32 -8 76 -20 97 -26 21 -6 35 -14 31 -20 -3 -6 -12 -8 -20 -5
-22 9 -16 -3 19 -35 l32 -30 -35 3 c-19 2 -36 9 -36 16 -1 6 -2 16 -3 21 -1
13 -30 41 -42 41 -5 0 -9 -22 -9 -50 l0 -50 38 -1 c20 -1 48 -5 62 -9 20 -6
14 -9 -30 -11 -38 -1 -45 -3 -22 -6 55 -7 36 -19 -60 -37 -51 -9 -136 -28
-188 -41 -87 -22 -90 -23 -40 -20 30 2 115 16 188 30 137 27 197 29 134 5 -18
-7 -31 -14 -28 -17 2 -3 19 2 38 10 18 8 54 15 80 14 30 0 52 5 63 16 9 10 27
17 41 17 13 0 24 4 24 9 0 5 3 17 6 26 5 13 2 15 -22 9 -16 -4 -26 -3 -21 1 4
5 -5 22 -20 38 -18 18 -23 28 -13 27 32 -5 50 1 50 14 0 16 -30 26 -77 26 -18
0 -33 4 -33 10 0 14 -52 39 -100 46 -49 8 -71 35 -76 96 -2 23 -6 49 -9 58 -3
11 1 16 15 17 11 1 20 -2 20 -8 0 -5 -4 -9 -10 -9 -5 0 -10 -8 -10 -19 0 -15
11 -19 73 -24 137 -12 457 -73 565 -108 26 -9 32 -16 32 -39 0 -30 2 -29 -95
-46 -36 -7 -38 -8 -15 -14 l25 -7 -27 -11 c-14 -6 -52 -14 -85 -17 -32 -3 -67
-10 -78 -14 -72 -30 -72 -30 -20 -25 28 3 62 10 77 16 40 15 187 45 193 40 3
-3 0 -11 -6 -19 -6 -7 -8 -13 -3 -13 15 1 44 26 44 39 0 6 7 11 15 11 9 0 15
9 15 25 0 28 -16 34 -23 8 -2 -10 -4 -3 -4 15 0 17 5 32 11 32 7 0 13 15 14
34 2 31 1 33 -24 28 -14 -2 -21 -8 -15 -11 5 -4 7 -11 3 -17 -5 -7 -55 2 -152
27 -80 21 -139 38 -132 39 7 0 10 5 7 10 -8 14 -42 13 -47 -1 -3 -8 -10 -6
-20 5 -9 9 -38 19 -63 23 -26 3 -52 11 -59 18 -6 7 -33 22 -60 34 -48 21 -48
21 -41 58 3 21 15 58 26 82 18 42 24 71 14 71 -2 0 -21 -11 -41 -25 -20 -14
-45 -25 -55 -25 -10 0 -17 -6 -15 -12 1 -7 1 -10 -1 -5 -3 4 -11 7 -18 7 -7 0
-15 6 -18 14 -4 9 -14 12 -26 9 -35 -9 -24 22 14 40 20 9 41 28 47 43 7 15 23
27 40 31 16 3 31 10 34 14 8 14 -11 11 -68 -11 -60 -23 -76 -19 -24 5 53 25
53 35 1 35 -32 0 -52 6 -67 20 -25 23 -26 23 -58 5z m-190 -85 c0 -5 -5 -10
-11 -10 -5 0 -7 5 -4 10 3 6 8 10 11 10 2 0 4 -4 4 -10z m219 -258 c9 -17 19
-22 33 -19 12 3 17 2 12 -3 -5 -4 -31 -6 -59 -3 -46 5 -50 7 -51 32 0 14 -2
32 -5 40 -2 9 6 17 21 21 21 5 26 2 31 -19 3 -15 11 -37 18 -49z m98 36 c-3
-8 -6 -5 -6 6 -1 11 2 17 5 13 3 -3 4 -12 1 -19z m73 -58 c11 -7 4 -10 -25 -9
-31 0 -36 2 -20 9 26 11 28 11 45 0z m195 -60 c3 -5 1 -10 -4 -10 -6 0 -11 5
-11 10 0 6 2 10 4 10 3 0 8 -4 11 -10z m-291 -56 c9 -24 2 -26 -12 -4 -7 11
-8 20 -3 20 5 0 12 -7 15 -16z m218 -159 c13 -17 -1 -19 -20 -2 -10 10 -25 17
-33 17 -8 0 -19 8 -26 19 -11 17 -9 17 30 -3 23 -11 45 -25 49 -31z m-46 -22
c-4 -9 1 -21 11 -28 16 -12 15 -13 -10 -12 -18 1 -26 6 -22 15 3 8 5 23 5 33
0 12 4 17 11 14 6 -4 8 -14 5 -22z"/>
<path d="M9753 1472 c-7 -4 -15 -24 -18 -42 l-6 -35 16 28 c18 30 30 34 39 12
8 -21 35 -19 32 3 -2 9 -13 18 -25 20 -12 2 -19 8 -16 13 7 11 -5 12 -22 1z"/>
<path d="M11665 1470 c3 -5 8 -10 11 -10 2 0 4 5 4 10 0 6 -5 10 -11 10 -5 0
-7 -4 -4 -10z"/>
<path d="M9830 1449 c0 -5 5 -7 10 -4 6 3 10 8 10 11 0 2 -4 4 -10 4 -5 0 -10
-5 -10 -11z"/>
<path d="M10020 1449 c0 -5 5 -7 10 -4 6 3 10 8 10 11 0 2 -4 4 -10 4 -5 0
-10 -5 -10 -11z"/>
<path d="M10698 1453 c7 -3 16 -2 19 1 4 3 -2 6 -13 5 -11 0 -14 -3 -6 -6z"/>
<path d="M11650 1449 c0 -8 7 -24 15 -36 14 -20 13 -21 -20 -21 -22 0 -33 4
-28 11 3 6 1 7 -5 3 -7 -4 -20 -2 -29 3 -17 10 -17 10 1 11 11 0 17 3 13 6 -3
4 -14 4 -23 0 -15 -6 -15 -8 2 -27 16 -17 28 -19 108 -17 50 1 97 -2 105 -6
10 -6 12 -5 7 2 -4 7 -14 12 -22 12 -8 0 -14 5 -14 11 0 12 -21 31 -55 51 -18
10 -19 10 -6 -5 19 -23 -5 -23 -31 0 -15 13 -18 13 -18 2z"/>
<path d="M9960 1421 c0 -20 31 -24 42 -7 12 18 10 21 -17 22 -18 1 -25 -3 -25
-15z"/>
<path d="M9923 1410 c-1 -11 2 -18 8 -15 11 7 12 35 1 35 -4 0 -8 -9 -9 -20z"/>
<path d="M11918 1405 c-9 -20 -18 -25 -50 -25 l-39 0 15 -27 c8 -16 46 -59 85
-98 l71 -69 0 47 c0 47 -7 56 -26 37 -8 -8 -15 -6 -24 5 -12 14 -11 18 1 26 8
5 22 9 32 9 12 0 17 8 17 30 0 26 -4 30 -27 31 -16 1 -31 1 -35 0 -17 -2 -7
18 11 24 11 3 25 12 31 20 11 13 7 15 -19 15 -24 0 -34 -6 -43 -25z"/>
<path d="M11497 1402 c2 -8 3 -24 3 -38 0 -14 5 -22 13 -19 6 3 24 -6 40 -20
15 -14 27 -22 27 -18 -1 12 -48 63 -58 63 -4 0 -13 10 -18 23 -6 12 -9 16 -7
9z"/>
<path d="M11410 1378 c0 -9 5 -20 10 -23 13 -8 13 5 0 25 -8 13 -10 13 -10 -2z"/>
<path d="M9936 1345 c-11 -8 -15 -15 -9 -15 6 0 16 7 23 15 16 19 11 19 -14 0z"/>
<path d="M11783 1313 c-11 -17 -19 -49 -20 -84 -2 -55 0 -59 34 -85 45 -34
139 -73 177 -74 25 0 27 3 21 23 -3 12 -10 34 -13 49 -6 21 -164 198 -178 198
-2 0 -12 -12 -21 -27z m117 -179 c0 -11 -5 -14 -16 -10 -9 3 -18 6 -20 6 -3 0
-2 5 1 10 10 16 35 12 35 -6z"/>
<path d="M9945 1310 c-3 -6 1 -7 9 -4 18 7 21 14 7 14 -6 0 -13 -4 -16 -10z"/>
<path d="M11859 1297 c26 -28 31 -32 31 -19 0 4 -13 16 -28 26 l-27 19 24 -26z"/>
<path d="M9750 1255 c-13 -14 -21 -25 -19 -25 3 0 20 11 39 25 19 14 27 25 19
25 -9 0 -26 -11 -39 -25z"/>
<path d="M9926 1245 c-8 -22 3 -83 16 -91 5 -4 15 -1 21 5 8 8 5 17 -12 35
-20 21 -20 25 -6 28 14 3 14 5 2 22 -13 18 -14 18 -21 1z"/>
<path d="M9596 1235 c-8 -23 -8 -46 2 -42 4 1 18 -8 32 -21 27 -25 51 -26 58
-2 5 13 3 13 -13 0 -17 -14 -18 -13 -12 12 8 32 -7 45 -29 27 -14 -11 -15 -10
-12 11 4 27 -17 39 -26 15z"/>
<path d="M9893 1216 c0 -18 3 -24 9 -18 7 7 7 16 0 28 -8 14 -9 13 -9 -10z"/>
<path d="M10576 1221 c-3 -5 1 -11 9 -14 9 -4 12 -1 8 9 -6 16 -10 17 -17 5z"/>
<path d="M11538 1193 c22 -31 39 -35 88 -19 14 4 30 -1 50 -16 l29 -22 -25 28
c-15 17 -31 25 -42 22 -10 -2 -25 2 -32 10 -16 16 -30 19 -21 5 12 -21 -14
-19 -41 2 l-29 22 23 -32z"/>
<path d="M10549 1154 c-5 -7 2 -18 20 -32 16 -12 31 -17 33 -12 2 5 30 -1 63
-15 33 -13 66 -25 73 -25 16 0 15 -12 -2 -35 -8 -12 -19 -16 -31 -12 -13 6
-16 3 -11 -9 3 -8 6 -20 6 -25 0 -24 33 -5 48 29 12 27 22 37 37 35 11 -1 -25
20 -80 47 -72 36 -90 49 -65 45 31 -5 33 -4 15 6 -25 16 -94 18 -106 3z"/>
<path d="M9668 1123 c7 -3 16 -2 19 1 4 3 -2 6 -13 5 -11 0 -14 -3 -6 -6z"/>
<path d="M11770 1116 c0 -11 72 -76 100 -91 38 -20 130 -24 130 -6 0 5 -16 12
-36 15 -44 9 -153 54 -176 74 -10 8 -18 12 -18 8z"/>
<path d="M11760 1052 c0 -5 12 -14 27 -21 28 -13 28 -13 9 8 -20 22 -36 27
-36 13z"/>
<path d="M10098 1010 c-3 -8 -1 -24 5 -34 8 -15 5 -23 -11 -36 -26 -22 -19
-64 9 -57 15 4 17 2 9 -13 -5 -10 -15 -20 -22 -22 -18 -6 -1 -38 20 -38 21 0
52 29 52 49 0 7 5 9 10 6 6 -3 10 3 10 14 0 15 -5 19 -17 14 -10 -3 -15 -3
-11 1 3 4 14 9 23 10 10 1 24 18 31 37 13 33 13 33 -4 14 -19 -23 -63 -55 -74
-55 -17 0 -7 22 29 62 21 24 28 35 16 24 -20 -17 -23 -17 -29 -2 -3 9 -12 16
-19 16 -7 0 -15 6 -17 13 -3 8 -6 8 -10 -3z"/>
<path d="M10865 1006 c16 -12 17 -16 6 -30 -18 -21 -31 -20 -31 2 0 26 -11 34
-27 21 -10 -9 -13 -8 -13 2 -1 10 -3 9 -10 -3 -13 -21 2 -63 29 -80 15 -9 17
-17 10 -35 -11 -30 -12 -133 -1 -133 5 0 9 24 10 53 1 57 21 116 46 136 13 11
15 10 11 -6 -2 -12 2 -20 11 -20 8 0 14 4 14 9 0 5 4 6 10 3 5 -3 20 1 31 9
16 10 28 12 46 5 22 -8 24 -7 21 12 -2 17 -18 27 -78 45 -87 28 -113 31 -85
10z"/>
<path d="M10316 995 c4 -8 11 -15 16 -15 6 0 5 6 -2 15 -7 8 -14 15 -16 15 -2
0 -1 -7 2 -15z"/>
<path d="M10360 1003 c0 -7 25 -39 57 -70 31 -32 49 -49 40 -37 -10 11 -17 26
-17 33 0 7 -4 9 -10 6 -5 -3 -10 -3 -10 2 -1 14 -59 79 -60 66z"/>
<path d="M10260 989 c0 -5 5 -7 10 -4 6 3 10 8 10 11 0 2 -4 4 -10 4 -5 0 -10
-5 -10 -11z"/>
<path d="M9696 975 c4 -8 10 -15 15 -15 4 0 6 7 3 15 -4 8 -10 15 -15 15 -4 0
-6 -7 -3 -15z"/>
<path d="M9730 986 c0 -2 7 -9 15 -16 13 -11 14 -10 9 4 -5 14 -24 23 -24 12z"/>
<path d="M10509 956 c14 -15 26 -26 28 -26 9 0 -24 40 -37 45 -8 4 -4 -5 9
-19z"/>
<path d="M10030 924 c0 -8 5 -12 10 -9 6 4 8 11 5 16 -9 14 -15 11 -15 -7z"/>
<path d="M9952 910 c-23 -19 -21 -50 4 -50 8 0 11 6 8 15 -4 8 -1 22 6 30 19
23 8 26 -18 5z"/>
<path d="M11181 903 c6 -7 17 -13 24 -13 7 0 18 -7 25 -15 9 -11 17 -12 31 -4
29 15 23 26 -18 34 -65 14 -74 13 -62 -2z"/>
<path d="M10865 891 c-10 -18 17 -23 33 -7 15 15 15 16 -5 16 -12 0 -24 -4
-28 -9z"/>
<path d="M10006 882 c-3 -5 1 -9 9 -9 8 0 12 4 9 9 -3 4 -7 8 -9 8 -2 0 -6 -4
-9 -8z"/>
<path d="M10467 853 c-4 -3 -7 -15 -7 -25 0 -11 -4 -17 -9 -14 -17 11 -39 -5
-34 -24 5 -17 7 -17 20 -5 8 8 20 15 27 15 24 0 36 23 22 42 -7 10 -16 15 -19
11z"/>
<path d="M10560 846 c0 -2 7 -7 16 -10 8 -3 12 -2 9 4 -6 10 -25 14 -25 6z"/>
<path d="M10172 815 c0 -16 2 -22 5 -12 2 9 2 23 0 30 -3 6 -5 -1 -5 -18z"/>
<path d="M10596 821 c-3 -5 0 -13 7 -18 24 -19 99 -42 114 -36 12 5 14 3 8 -6
-6 -10 -2 -11 15 -6 15 5 20 4 16 -4 -5 -7 -1 -8 10 -4 15 6 14 8 -7 16 -13 6
-53 23 -88 38 -72 33 -68 32 -75 20z m29 -11 c3 -6 -1 -7 -9 -4 -18 7 -21 14
-7 14 6 0 13 -4 16 -10z"/>
<path d="M11155 800 c-4 -6 15 -10 52 -9 48 1 53 3 28 9 -44 11 -73 11 -80 0z"/>
<path d="M11918 734 c-18 -38 -33 -70 -34 -72 -1 -2 -141 -10 -219 -12 -15 0
-17 -2 -6 -9 9 -6 10 -11 2 -15 -34 -22 51 -42 129 -31 39 5 57 15 89 46 22
22 43 54 46 72 4 18 14 43 22 55 8 13 12 26 9 29 -3 3 -20 -26 -38 -63z m-181
-110 c-3 -3 -12 -4 -19 -1 -8 3 -5 6 6 6 11 1 17 -2 13 -5z m61 -1 c-10 -2
-26 -2 -35 0 -10 3 -2 5 17 5 19 0 27 -2 18 -5z m49 1 c-3 -3 -12 -4 -19 -1
-8 3 -5 6 6 6 11 1 17 -2 13 -5z"/>
<path d="M11187 763 c-15 -2 -25 -8 -22 -12 6 -11 55 -1 55 10 0 5 -1 8 -2 8
-2 -1 -15 -4 -31 -6z"/>
<path d="M11260 760 c-23 -7 -23 -8 -3 -9 12 -1 25 4 28 9 3 6 5 10 3 9 -2 -1
-14 -5 -28 -9z"/>
<path d="M10790 740 c-13 -8 -12 -10 3 -10 9 0 17 5 17 10 0 12 -1 12 -20 0z"/>
<path d="M10918 733 c7 -3 16 -2 19 1 4 3 -2 6 -13 5 -11 0 -14 -3 -6 -6z"/>
<path d="M10813 717 c-8 -14 28 -20 70 -10 l42 9 -53 5 c-30 2 -56 1 -59 -4z"/>
<path d="M11005 711 c-3 -6 18 -7 52 -4 76 8 80 13 10 13 -31 0 -58 -4 -62 -9z"/>
<path d="M10470 695 c7 -9 15 -13 18 -10 3 3 15 -3 26 -12 15 -13 14 -10 -3
10 -26 29 -65 41 -41 12z"/>
<path d="M11728 693 c7 -3 16 -2 19 1 4 3 -2 6 -13 5 -11 0 -14 -3 -6 -6z"/>
<path d="M11493 663 c15 -2 37 -2 50 0 12 2 0 4 -28 4 -27 0 -38 -2 -22 -4z"/>
<path d="M10595 650 c-8 -13 15 -24 27 -12 6 6 4 11 -6 15 -8 3 -18 2 -21 -3z"/>
<path d="M10830 653 c0 -4 5 -15 10 -23 8 -13 10 -13 10 2 0 9 -4 20 -10 23
-5 3 -10 3 -10 -2z"/>
<path d="M11593 643 c9 -2 25 -2 35 0 9 3 1 5 -18 5 -19 0 -27 -2 -17 -5z"/>
<path d="M11523 633 c9 -2 25 -2 35 0 9 3 1 5 -18 5 -19 0 -27 -2 -17 -5z"/>
<path d="M10881 621 c-23 -15 3 -20 34 -6 29 13 29 13 5 14 -14 0 -31 -3 -39
-8z"/>
<path d="M10785 590 c-25 -11 1 -11 35 0 20 6 21 8 5 8 -11 0 -29 -3 -40 -8z"/>
<path d="M10981 591 c-21 -13 5 -24 29 -11 11 6 20 13 20 15 0 8 -34 5 -49 -4z"/>
<path d="M10246 562 c-9 -15 30 -23 153 -29 76 -4 112 -3 108 4 -4 6 -55 13
-114 15 -60 3 -115 9 -124 12 -10 4 -20 3 -23 -2z"/>
<path d="M11040 557 c15 -16 120 -40 120 -27 0 3 -21 12 -47 18 -27 6 -57 14
-68 18 -18 6 -18 5 -5 -9z"/>
<path d="M10533 533 c9 -2 25 -2 35 0 9 3 1 5 -18 5 -19 0 -27 -2 -17 -5z"/>
<path d="M10605 521 c-10 -18 14 -21 47 -7 l33 14 -37 1 c-20 1 -39 -3 -43 -8z"/>
<path d="M10394 513 c-14 -5 -1 -86 15 -91 6 -2 11 -10 11 -17 0 -7 7 -16 16
-19 8 -3 13 -10 9 -15 -3 -5 -1 -12 5 -16 15 -9 12 22 -5 55 -8 16 -12 36 -9
44 7 18 -26 64 -42 59z"/>
<path d="M10330 492 c0 -4 5 -13 12 -20 9 -9 9 -12 0 -12 -7 0 -12 -5 -12 -11
0 -5 5 -7 12 -3 7 5 9 2 6 -8 -8 -20 22 -63 44 -64 10 -1 16 1 15 5 -2 3 -12
23 -21 44 -17 38 -56 85 -56 69z"/>
<path d="M10920 470 c11 -16 26 -33 32 -36 7 -4 -1 9 -16 29 -34 44 -46 50
-16 7z"/>
<path d="M11015 360 c10 -11 20 -20 23 -20 3 0 -3 9 -13 20 -10 11 -20 20 -23
20 -3 0 3 -9 13 -20z"/>
<path d="M10390 356 c0 -2 8 -10 18 -17 15 -13 16 -12 3 4 -13 16 -21 21 -21
13z"/>
<path d="M11095 350 c-18 -8 -17 -9 8 -9 15 -1 27 4 27 9 0 12 -8 12 -35 0z"/>
<path d="M10760 313 c0 -4 5 -15 10 -23 8 -13 10 -13 10 2 0 9 -4 20 -10 23
-5 3 -10 3 -10 -2z"/>
<path d="M11106 307 c3 -10 9 -15 12 -12 3 3 0 11 -7 18 -10 9 -11 8 -5 -6z"/>
<path d="M10807 290 c3 -11 7 -20 9 -20 2 0 4 9 4 20 0 11 -4 20 -9 20 -5 0
-7 -9 -4 -20z"/>
<path d="M11028 303 c6 -2 12 -11 12 -19 0 -8 5 -14 10 -14 7 0 7 6 0 20 -6
11 -16 20 -23 19 -9 0 -9 -2 1 -6z"/>
<path d="M11087 293 c-4 -3 -7 -11 -7 -17 0 -6 5 -5 12 2 6 6 9 14 7 17 -3 3
-9 2 -12 -2z"/>
<path d="M11015 270 c-3 -5 -1 -10 4 -10 6 0 11 5 11 10 0 6 -2 10 -4 10 -3 0
-8 -4 -11 -10z"/>
<path d="M11100 261 c0 -6 4 -13 10 -16 6 -3 7 1 4 9 -7 18 -14 21 -14 7z"/>
<path d="M10745 251 c8 -14 65 -41 85 -41 10 0 24 8 31 17 13 15 12 16 -9 11
-13 -4 -39 0 -57 8 -40 16 -59 18 -50 5z"/>
<path d="M10811 160 c0 -29 1 -32 10 -17 7 11 7 23 0 35 -9 14 -10 11 -10 -18z"/>
<path d="M10602 38 c-19 -19 -14 -30 8 -18 11 6 20 15 20 20 0 14 -14 12 -28
-2z"/>
</g>
</svg>
